<svg width="148" height="64" viewBox="0 0 148 64" fill="none" xmlns="http://www.w3.org/2000/svg">
<path d="M73.9282 3.37976C83.4117 3.37976 91.0991 11.0741 91.0991 20.5663C91.0991 30.0584 83.4117 37.7528 73.9282 37.7528C64.4448 37.7528 56.7574 30.0584 56.7574 20.5663C56.7574 11.0741 64.4448 3.37976 73.9282 3.37976ZM73.9282 1.76178C63.5826 1.76178 55.1409 10.1753 55.1409 20.5663C55.1409 30.9573 63.5467 39.3708 73.9282 39.3708C84.3098 39.3708 92.7156 30.9573 92.7156 20.5663C92.7156 10.1753 84.2739 1.76178 73.9282 1.76178Z" fill="#C19E00"/>
<path d="M82.9089 4.85392L82.837 4.17078L77.269 11.5056C77.305 11.6854 77.3409 11.8652 77.3768 12.0449C77.5205 12.0449 77.6642 12.0449 77.772 12.0449C79.2448 12.0449 80.4661 11.5775 81.3283 10.6427C83.304 8.6292 82.9089 5.0337 82.9089 4.85392Z" fill="#14AD00"/>
<path d="M77.5923 13.3034C77.6282 13.5551 77.6641 13.8068 77.7001 14.0584C78.7059 14.3101 79.6758 14.454 80.5738 14.454C82.0107 14.454 83.3039 14.1304 84.4175 13.4832C87.0399 11.9371 87.7583 9.1326 87.7583 9.02474L87.902 8.48541L77.5923 13.3034Z" fill="#14AD00"/>
<path d="M89.4107 13.9146C84.0942 15.6764 77.9514 16.0719 77.9155 16.0719C77.9155 16.2517 77.9515 16.4674 77.9515 16.6472L78.0951 16.7191C79.9272 17.6539 81.6155 18.1213 83.232 18.1213C84.0223 18.1213 84.7767 18.0135 85.4951 17.7618C88.4049 16.8269 89.734 14.382 89.7699 14.2741L90.0573 13.6989L89.4107 13.9146Z" fill="#007A18"/>
<path d="M90.3806 17.618C84.5612 19.9191 78.0234 18.7326 77.9515 18.6966H77.8797C77.8797 18.8764 77.8438 19.0921 77.8438 19.2719C79.7836 20.9977 81.7952 21.8966 83.7709 21.8966C84.0224 21.8966 84.2738 21.8966 84.5253 21.8607C88.2612 21.4652 90.5962 18.1933 90.7039 18.0494L91.2428 17.2584L90.3806 17.618Z" fill="#14AD00"/>
<path d="M90.4524 23.4068C82.4058 24.3416 77.8437 21.7888 77.8077 21.7888L77.5204 21.645C77.4844 21.8247 77.4485 21.9686 77.4126 22.1483L77.4485 22.1843C79.065 24.5573 81.0407 25.9236 83.3039 26.2472C83.6631 26.2832 83.9864 26.3191 84.3097 26.3191C87.7582 26.3191 90.5242 24.018 90.6679 23.9101L91.3504 23.3348L90.4524 23.4068Z" fill="#14AD00"/>
<path d="M88.0457 29.3753C81.1486 29.5191 76.7301 24.9887 76.6942 24.9528L76.5505 24.809C76.4787 25.0247 76.3709 25.2045 76.2991 25.4202C77.1253 28.1887 78.5263 29.9865 80.502 30.8135C81.3282 31.173 82.2263 31.2809 83.0525 31.2809C85.7107 31.2809 88.0457 29.9505 88.1894 29.8786L89.0874 29.3393L88.0457 29.3753Z" fill="#007A18"/>
<path d="M84.0941 33.6539C80.2863 33.1865 75.796 28.5842 75.0417 27.7573C74.898 27.973 74.7543 28.1887 74.6106 28.4045C75.365 31.2449 76.6582 33.1505 78.5261 34.0854C79.496 34.5528 80.4659 34.7325 81.3281 34.7325C82.9087 34.7325 84.0941 34.1932 84.2019 34.1573L85.0999 33.7618L84.0941 33.6539Z" fill="#14AD00"/>
<path d="M77.8078 36.9618C75.1855 35.5595 73.0301 30.9213 72.9942 30.8494L72.8505 30.5618C72.7068 30.7056 72.5991 30.8494 72.4554 30.9573C72.2758 33.3663 72.7787 35.164 73.9641 36.2786C75.0418 37.2854 76.4068 37.4651 77.1612 37.4651C77.4845 37.4651 77.6641 37.4292 77.7 37.4292L78.4903 37.3213L77.8078 36.9618Z" fill="#14AD00"/>
<path d="M76.6223 11.1101C76.4786 10.8944 76.1194 10.3551 75.7961 9.42023C74.2155 7.83821 71.3418 5.46518 67.8932 4.63821L67.2107 4.45844L67.6058 5.03372C67.7854 5.32136 72.0602 11.3618 76.299 11.3618C76.4068 11.3618 76.5505 11.3618 76.6583 11.3259C76.6583 11.2539 76.6223 11.182 76.6223 11.1101Z" fill="#007A18"/>
<path d="M75.9757 0.611236L75.6165 0L75.4728 0.719101C74.6825 4.99775 75.2213 7.80225 75.7961 9.42023C76.1194 10.3551 76.4786 10.8944 76.6223 11.1101L76.766 11.0742L77.1252 11.0022C77.1252 11.0382 77.1611 11.1101 77.1611 11.1461C79.3883 6.61573 76.0834 0.862921 75.9757 0.611236Z" fill="#14AD00"/>
<path d="M77.1613 14.0584C75.5807 12.6921 70.4438 8.55729 65.8458 8.66516H65.271L65.6661 9.09662C65.8817 9.3483 70.9467 14.9932 76.5506 14.9932C76.8021 14.9932 77.0176 14.9573 77.2691 14.9573C77.2331 14.6337 77.1972 14.3461 77.1613 14.0584Z" fill="#14AD00"/>
<path d="M62.2535 9.81573L61.4272 9.02472L61.8224 10.1034C61.8583 10.2112 65.235 19.2719 74.8622 19.2719C75.6525 19.2719 76.4787 19.2 77.3408 19.0921C77.3408 18.8764 77.3768 18.6966 77.3768 18.4809C75.9399 17.9056 66.8874 14.2382 62.2535 9.81573Z" fill="#14AD00"/>
<path d="M58.0147 13.9505L57.2244 13.3033L57.5836 14.2382C57.6195 14.346 61.1758 23.155 71.1622 23.155C72.8506 23.155 74.6826 22.9033 76.7661 22.3281C76.802 22.1123 76.8739 21.9326 76.9098 21.7168C76.0477 21.8247 68.0729 22.1483 58.0147 13.9505Z" fill="#007A18"/>
<path d="M57.9068 23.4068L57.0088 23.227L57.6554 23.8742C57.7272 23.9461 61.6428 27.8292 67.8214 27.8292C70.1204 27.8292 72.7068 27.2899 75.5088 25.8517C75.6525 25.5641 75.7962 25.2405 75.9399 24.9169C74.3952 24.9888 66.636 25.3483 57.9068 23.4068Z" fill="#14AD00"/>
<path d="M77.9155 16.6113C77.9155 16.4315 77.9155 16.2517 77.8796 16.036C77.8436 15.3888 77.7718 14.7056 77.7 14.0225C77.664 13.7708 77.6281 13.5191 77.5922 13.2674C77.5203 12.8719 77.4485 12.4764 77.3767 12.045C77.3407 11.8652 77.3048 11.6854 77.2689 11.5056C77.233 11.3618 77.197 11.2539 77.197 11.1101C77.197 11.0742 77.1611 11.0023 77.1611 10.9663L76.8019 11.0382L76.6582 11.0742C76.6582 11.1461 76.6941 11.218 76.6941 11.2899C76.9097 12.2247 77.0534 13.1236 77.197 13.9865C77.233 14.3101 77.2689 14.5978 77.3048 14.8854C77.4126 16.1079 77.4485 17.2944 77.4126 18.409C77.4126 18.6247 77.3767 18.8045 77.3767 19.0202C77.3048 19.9551 77.1611 20.8539 76.9815 21.6809C76.9456 21.8966 76.8737 22.0764 76.8378 22.2922C76.6223 23.191 76.3349 24.018 76.0116 24.809C75.8679 25.1326 75.7242 25.4202 75.5805 25.7438C71.7728 33.5101 63.4747 35.9191 63.3669 35.9551L63.5106 36.4584C63.6184 36.4225 68.4679 35.0202 72.5271 30.9214C72.6708 30.7775 72.7786 30.6697 72.9223 30.5259C73.533 29.8787 74.1436 29.1236 74.6825 28.3326C74.8262 28.1169 74.9699 27.9011 75.1135 27.6854C75.5805 26.9663 76.0116 26.1753 76.3708 25.3483C76.4427 25.1326 76.5504 24.9528 76.6223 24.7371C76.9456 23.9101 77.233 23.0113 77.4485 22.0405C77.4844 21.8607 77.5203 21.7169 77.5563 21.5371C77.7 20.782 77.8077 19.991 77.8796 19.1641C77.8796 18.9843 77.9155 18.7686 77.9155 18.5888C77.9514 18.0135 77.9514 17.3304 77.9155 16.6113Z" fill="#007A18"/>
<path d="M73.0661 27.7933C72.9583 27.8292 63.9778 30.8854 60.2778 30.7056L59.0564 30.6337L60.1341 31.209C60.17 31.2449 62.3972 32.3596 65.235 32.3596C67.7496 32.3596 70.803 31.4966 73.3176 28.1888L73.8564 27.4697L73.0661 27.7933Z" fill="#007A18"/>
<path d="M48.7466 18.1213H47.1301V24.5213H48.7466V18.1213Z" fill="#C19E00"/>
<path d="M100.726 18.1213H99.1096V24.5213H100.726V18.1213Z" fill="#C19E00"/>
<path d="M13.7582 51.3798C13.7582 48.2157 11.4951 45.9865 8.26207 45.9865H0.0717773V63.6404H2.8378V56.809H7.61547L11.8543 63.6404H15.0155L10.4893 56.4135C12.5009 55.6225 13.7582 53.7528 13.7582 51.3798ZM8.1543 54.2562H2.80187V48.5393H8.1543C9.9145 48.5393 11.0281 49.6539 11.0281 51.3798C11.0281 53.1416 9.9145 54.2562 8.1543 54.2562Z" fill="#303030"/>
<path d="M46.4835 50.5168C42.568 50.5168 39.8738 53.2494 39.8738 57.1685C39.8738 61.0876 42.6039 63.8202 46.4835 63.8202C50.3631 63.8202 53.0932 61.0876 53.0932 57.1685C53.0932 53.2494 50.399 50.5168 46.4835 50.5168ZM46.4835 61.3034C44.1485 61.3034 42.6039 59.6494 42.6039 57.1685C42.6039 54.6876 44.1485 53.0337 46.4835 53.0337C48.8184 53.0337 50.3631 54.6876 50.3631 57.1685C50.3631 59.6494 48.7825 61.3034 46.4835 61.3034Z" fill="#303030"/>
<path d="M61.7864 50.6607C60.1699 50.6607 58.733 51.1641 57.6912 52.3506V50.6607H54.9971V63.6405H57.6912V57.7798C57.6912 55.0832 59.4155 53.1057 61.7864 53.1057H62.433V50.6607H61.7864Z" fill="#303030"/>
<path d="M84.3815 55.5505H77.4485V57.8157H84.3815V55.5505Z" fill="#303030"/>
<path d="M34.1981 55.8382C32.6894 55.3348 31.7554 55.2989 31.6835 54.2202C31.6476 53.5011 32.5457 52.9977 33.767 52.9977C34.8447 52.9977 35.7787 53.3213 36.3894 53.9685L36.6408 54.2202L38.3292 52.5303L38.0777 52.2427C37 51.1281 35.4913 50.5168 33.7311 50.5168C30.9292 50.5168 29.0253 52.027 29.0253 54.2921C29.0253 56.8449 31.5758 57.4921 33.4078 57.9955C34.1622 58.2112 35.9583 58.8225 35.9583 59.973C35.9583 60.764 34.9525 61.3393 33.5515 61.3393C32.402 61.3393 31.2884 60.9438 30.5699 60.3326L30.3544 60.1168L28.6301 61.8427L28.9534 62.1303C30.1748 63.2449 31.7913 63.8562 33.5515 63.8562C36.569 63.8562 38.5806 62.2741 38.5806 59.9371C38.6165 56.773 34.1981 55.8382 34.1981 55.8382Z" fill="#303030"/>
<path d="M71.7368 60.836C71.4135 61.1236 71.0184 61.2674 70.5155 61.2674C69.5096 61.2674 68.899 60.5843 68.899 59.5775V53.1056H73.2456V50.6966H68.899V48.5393V47.209V46.382C68.899 46.382 68.3601 47.2809 66.2048 48.2876V50.6607H63.9058V53.0697H66.2048V59.6854C66.2048 62.0584 67.9291 63.7843 70.3359 63.7843C71.5572 63.7843 72.599 63.3168 73.3893 62.4539L71.7368 60.836Z" fill="#303030"/>
<path d="M95.9844 50.6607C94.5835 50.6607 93.3262 51.0202 92.3563 51.9191V45.4113H89.6621V62.7416L90.0213 62.9214C91.2068 63.4607 92.7874 63.7843 94.2961 63.7843C98.6786 63.7843 101.732 60.9079 101.732 56.7731C101.768 53.1056 99.3971 50.6607 95.9844 50.6607ZM95.733 53.1416C98.1398 53.1416 99.0019 54.5798 99.0019 56.8809C99.0019 59.5056 97.2058 61.3034 94.5476 61.3034C93.865 61.3034 93.0388 61.1955 92.3563 60.9798V58.5708C92.3563 55.1191 93.5058 53.1416 95.733 53.1416Z" fill="#303030"/>
<path d="M124.399 60.836C124.076 61.1236 123.68 61.2674 123.178 61.2674C122.172 61.2674 121.561 60.5843 121.561 59.5775V53.1056H125.908V50.6966H121.561V48.5393V47.209V46.382C121.561 46.382 121.022 47.2809 118.867 48.2876V50.6607H116.568V53.0697H118.867V59.6854C118.867 62.0584 120.591 63.7843 122.998 63.7843C124.219 63.7843 125.261 63.3168 126.051 62.4539L124.399 60.836Z" fill="#303030"/>
<path d="M133.631 60.836C133.308 61.1236 132.913 61.2674 132.41 61.2674C131.404 61.2674 130.793 60.5843 130.793 59.5775V53.1056H135.14V50.6966H130.793V48.5393V47.209V46.382C130.793 46.382 130.254 47.2809 128.099 48.2876V50.6607H125.8V53.0697H128.099V59.6854C128.099 62.0584 129.823 63.7843 132.23 63.7843C133.452 63.7843 134.493 63.3168 135.284 62.4539L133.631 60.836Z" fill="#303030"/>
<path d="M142.432 50.5168C140.492 50.5168 138.373 51.2719 137.223 52.4225L137.115 52.5303L138.804 54.2202L138.84 54.1843C139.63 53.5011 141.067 52.9977 142.324 52.9977C144.013 52.9977 145.162 53.8607 145.162 55.1191V55.5146V55.5506C145.09 55.5506 145.054 55.5506 144.982 55.5146C144.372 55.4067 143.725 55.3348 143.15 55.3348C142.504 55.3348 141.857 55.4067 141.282 55.5146C140.025 55.7303 138.983 56.1977 138.193 56.8449C137.223 57.6359 136.684 58.6427 136.684 59.8652C136.684 61.0876 137.259 62.1303 138.193 62.8494C138.983 63.4607 140.061 63.7843 141.282 63.7843C142.791 63.7843 144.156 63.2449 145.198 62.2741V63.6045H147.856V55.5146V55.0831C147.82 52.4584 145.521 50.5168 142.432 50.5168ZM141.606 61.3393C140.277 61.3393 139.379 60.6921 139.379 59.7933C139.379 58.391 140.995 57.7079 143.222 57.7079C143.869 57.7079 144.551 57.7798 145.126 57.9236C144.911 59.9011 143.474 61.3393 141.606 61.3393Z" fill="#303030"/>
<path d="M113.515 59.973L113.263 60.2247C112.545 60.9438 111.467 61.3034 110.174 61.3034C107.947 61.3034 106.33 60.0809 106.007 58.2112C106.007 58.2112 112.688 59.0382 114.628 56.2337C116.748 53.1416 113.91 50.0494 109.491 50.5528C105.863 50.9483 103.205 53.2854 103.205 57.0607C103.205 61.0517 106.007 63.8562 110.03 63.8562C112.006 63.8562 113.802 63.173 114.987 61.9146L115.203 61.6989L113.515 59.973ZM110.282 52.818C111.862 52.818 112.976 53.3573 112.976 54.1843C112.976 55.4067 111.036 56.018 108.378 56.018C107.587 56.018 106.761 55.9461 106.079 55.8382C106.33 54.0764 108.054 52.818 110.282 52.818Z" fill="#303030"/>
<path d="M25.5407 59.973L25.2892 60.2247C24.5708 60.9438 23.4931 61.3034 22.1999 61.3034C19.9727 61.3034 18.3562 60.0809 18.0329 58.2112C18.0329 58.2112 24.7145 59.0382 26.6543 56.2337C28.7737 53.1416 25.9358 50.0494 21.5174 50.5528C17.8892 50.9483 15.231 53.2854 15.231 57.0607C15.231 61.0517 18.0329 63.8562 22.0562 63.8562C24.0319 63.8562 25.828 63.173 27.0135 61.9146L27.229 61.6989L25.5407 59.973ZM22.3077 52.818C23.8882 52.818 25.0018 53.3573 25.0018 54.1843C25.0018 55.4067 23.062 56.018 20.4038 56.018C19.6135 56.018 18.7873 55.9461 18.1047 55.8382C18.3203 54.0764 20.0445 52.818 22.3077 52.818Z" fill="#303030"/>
</svg>
