<svg width="160" height="94" viewBox="0 0 160 94" fill="none" xmlns="http://www.w3.org/2000/svg">
<path opacity="0.6" d="M80 93.8433C124.183 93.8433 160 91.0727 160 87.655C160 84.2373 124.183 81.4667 80 81.4667C35.8172 81.4667 0 84.2373 0 87.655C0 91.0727 35.8172 93.8433 80 93.8433Z" fill="url(#paint0_radial)"/>
<path d="M62.8107 7.51999C84.1176 7.51999 101.464 24.5967 101.464 45.7467C101.464 66.8967 84.1968 83.9733 62.8107 83.9733C41.5038 83.9733 24.1572 66.8967 24.1572 45.7467C24.1572 24.5967 41.5038 7.51999 62.8107 7.51999ZM62.8107 3.91666C39.5236 3.91666 20.5137 22.7167 20.5137 45.7467C20.5137 68.7767 39.4444 87.5767 62.8107 87.5767C86.177 87.5767 105.108 68.855 105.108 45.7467C105.108 22.6383 86.0978 3.91666 62.8107 3.91666Z" fill="#C19E00"/>
<path d="M83.0092 10.81L82.8508 9.32169L70.3359 25.615C70.4151 26.0067 70.4943 26.4767 70.5736 26.8684C70.8904 26.8684 71.2072 26.8684 71.5241 26.8684C74.8508 26.8684 77.5439 25.85 79.5241 23.8134C83.8805 19.1917 83.0884 11.2017 83.0092 10.81Z" fill="#14AD00"/>
<path d="M71.0488 29.5317C71.128 30.08 71.2072 30.6283 71.2865 31.1767C73.5835 31.725 75.7221 32.0383 77.7815 32.0383C81.029 32.0383 83.9597 31.3333 86.4152 29.845C92.3558 26.3983 93.8607 20.1317 93.9399 19.8967L94.2568 18.6433L71.0488 29.5317Z" fill="#14AD00"/>
<path d="M97.6627 30.9417C85.7023 34.8583 71.9201 35.72 71.7617 35.72C71.7617 36.1117 71.8409 36.5817 71.8409 36.9733L72.1578 37.13C76.2766 39.245 80.0786 40.2633 83.7221 40.2633C85.4647 40.2633 87.2073 40.0283 88.7914 39.48C95.3657 37.4433 98.2964 31.96 98.4548 31.725L99.1677 30.3933L97.6627 30.9417Z" fill="#007A18"/>
<path d="M99.8816 39.1667C86.8123 44.2583 72.0796 41.595 71.9212 41.595H71.7628C71.7628 41.9867 71.6836 42.4567 71.6836 42.8483C76.04 46.6867 80.5549 48.645 85.0697 48.645C85.6242 48.645 86.1786 48.645 86.7331 48.5667C95.1291 47.6267 100.436 40.42 100.594 40.1067L101.783 38.4617L99.8816 39.1667Z" fill="#14AD00"/>
<path d="M100.038 52.0917C81.8999 54.2067 71.6821 48.5667 71.5236 48.4883L70.89 48.0967C70.8108 48.4883 70.7316 48.8017 70.6523 49.1933L70.7316 49.2717C74.3751 54.52 78.8108 57.575 83.8801 58.28C84.6721 58.3583 85.385 58.4367 86.1771 58.4367C93.9395 58.4367 100.197 53.345 100.435 53.11L102.019 51.8567L100.038 52.0917Z" fill="#14AD00"/>
<path d="M94.5735 65.33C79.128 65.6433 69.1478 55.6167 69.0686 55.46L68.7517 55.1467C68.5933 55.6167 68.3557 56.0867 68.1973 56.4783C70.019 62.5883 73.1874 66.6617 77.623 68.4633C79.524 69.2467 81.5042 69.4817 83.326 69.4817C89.3458 69.4817 94.5735 66.505 94.8903 66.3483L96.9497 65.1733L94.5735 65.33Z" fill="#007A18"/>
<path d="M85.7034 74.8867C77.149 73.79 67.0103 63.6067 65.347 61.805C65.0301 62.275 64.7133 62.745 64.3965 63.215C66.0599 69.4817 69.0698 73.79 73.1886 75.8267C75.3272 76.9233 77.545 77.2367 79.446 77.2367C83.0103 77.2367 85.7034 76.0617 85.8618 75.9833L87.842 75.1217L85.7034 74.8867Z" fill="#14AD00"/>
<path d="M71.5238 82.25C65.6625 79.1167 60.7516 68.7767 60.6724 68.6983L60.3555 68.0717C60.0387 68.385 59.8011 68.6983 59.4842 68.9333C59.0882 74.3383 60.1971 78.3333 62.8902 80.7617C65.3456 83.0333 68.4347 83.3467 70.0981 83.3467C70.811 83.3467 71.207 83.2683 71.2862 83.2683L73.108 83.0333L71.5238 82.25Z" fill="#14AD00"/>
<path d="M68.8304 24.7533C68.5135 24.2833 67.7215 23.03 66.9294 20.9933C63.365 17.5467 56.9492 12.22 49.1076 10.34L47.5234 9.94833L48.4739 11.28C48.87 11.9067 58.4541 25.38 68.0383 25.38C68.3551 25.38 68.5927 25.38 68.9096 25.3017C68.9096 25.0667 68.9096 24.91 68.8304 24.7533Z" fill="#007A18"/>
<path d="M67.406 1.41L66.5347 0L66.2179 1.56667C64.4753 11.045 65.5842 17.3117 66.9307 20.9933C67.6436 23.03 68.4357 24.2833 68.8317 24.7533L69.1486 24.675L70.0198 24.44C70.0198 24.5183 70.099 24.675 70.099 24.7533C75.1684 14.7267 67.7228 1.95833 67.406 1.41Z" fill="#14AD00"/>
<path d="M70.0984 31.255C66.5341 28.2 54.9697 18.9567 44.5935 19.1917H43.3262L44.1975 20.1317C44.6727 20.68 56.0786 33.2917 68.7519 33.2917C69.3064 33.2917 69.8608 33.2133 70.3361 33.2133C70.2569 32.5867 70.1777 31.96 70.0984 31.255Z" fill="#14AD00"/>
<path d="M36.5143 21.855L34.6133 20.0533L35.4846 22.4816C35.5638 22.7166 43.1677 42.8483 64.7915 42.8483C66.5341 42.8483 68.4351 42.6916 70.3361 42.3783C70.3361 41.9083 70.4153 41.4383 70.4153 41.0466C67.4054 39.8716 46.9697 31.725 36.5143 21.855Z" fill="#14AD00"/>
<path d="M27.0102 31.02L25.2676 29.61L26.1389 31.725C26.2181 31.96 34.2181 51.6217 56.7131 51.6217C60.5151 51.6217 64.7131 51.0734 69.3072 49.7417C69.3864 49.2717 69.5448 48.8017 69.624 48.41C67.6438 48.4883 49.6636 49.2717 27.0102 31.02Z" fill="#007A18"/>
<path d="M26.7712 52.0917L24.791 51.6217L26.2168 53.0317C26.3752 53.1883 35.1673 61.805 49.1078 61.805C54.2564 61.805 60.1177 60.5517 66.4544 57.34C66.7712 56.635 67.088 56.0083 67.4049 55.3033C63.8405 55.5383 46.3356 56.3217 26.7712 52.0917Z" fill="#14AD00"/>
<path d="M71.761 36.9733C71.761 36.5817 71.761 36.1117 71.6818 35.72C71.6026 34.2317 71.4442 32.7433 71.2858 31.255C71.2066 30.7067 71.1274 30.1583 71.0482 29.61C70.8897 28.7483 70.7313 27.8083 70.5729 26.9467C70.4937 26.555 70.4145 26.1633 70.3353 25.6933C70.2561 25.38 70.1769 25.145 70.1769 24.8317C70.1769 24.7533 70.0977 24.5967 70.0977 24.5183L69.2264 24.7533H68.9096C68.9888 24.91 68.9888 25.0667 68.9888 25.2233C69.464 27.26 69.86 29.2967 70.0977 31.255C70.1769 31.96 70.2561 32.5867 70.3353 33.2917C70.5729 36.0333 70.6521 38.6183 70.5729 41.125C70.5729 41.595 70.4937 42.065 70.4937 42.4567C70.3353 44.5717 70.0185 46.53 69.6224 48.41C69.5432 48.88 69.3848 49.35 69.3056 49.7417C68.7511 51.7 68.1175 53.58 67.3254 55.3817C67.0086 56.0867 66.6917 56.7917 66.3749 57.4183C57.8204 74.73 39.1274 80.0567 38.8105 80.135L39.1274 81.31C39.365 81.2317 50.2957 78.0983 59.4838 69.0117C59.8006 68.6983 60.0383 68.385 60.3551 68.15C61.7808 66.6617 63.1274 65.095 64.3155 63.2933C64.6323 62.8233 64.9492 62.3533 65.266 61.8833C66.2957 60.2383 67.2462 58.515 68.1175 56.635C68.3551 56.165 68.5135 55.7733 68.6719 55.3033C69.464 53.4233 70.0977 51.465 70.5729 49.2717C70.6521 48.88 70.7313 48.5667 70.8105 48.175C71.1274 46.53 71.4442 44.7283 71.5234 42.9267C71.5234 42.535 71.6026 42.065 71.6026 41.6733C71.8402 40.1067 71.8402 38.54 71.761 36.9733Z" fill="#007A18"/>
<path d="M60.9115 61.8833C60.6738 61.9617 40.4758 68.7767 32.159 68.385L29.3867 68.2283L31.8422 69.4816C31.9214 69.56 36.9115 72.0667 43.3273 72.0667C49.0303 72.0667 55.8422 70.1083 61.5451 62.8233L62.8125 61.2567L60.9115 61.8833Z" fill="#007A18"/>
<path d="M6.09864 40.3417H2.45508V54.52H6.09864V40.3417Z" fill="#C19E00"/>
<path d="M123.167 40.3417H119.523V54.52H123.167V40.3417Z" fill="#C19E00"/>
<path d="M108.04 43.3967C110.416 37.9133 115.723 34.075 121.901 34.075C130.297 34.075 136.317 41.125 137.03 49.585C137.03 49.585 137.426 51.7 136.554 55.46C135.366 60.63 132.436 65.1733 128.554 68.62L107.96 86.7933L87.7623 68.62C83.8811 65.1733 81.0296 60.5517 79.7623 55.46C78.891 51.7 79.2871 49.585 79.2871 49.585C80.0792 41.125 86.0989 34.075 94.4158 34.075C100.752 34.075 105.743 37.9133 108.04 43.3967Z" fill="url(#paint1_linear)" stroke="#EA0400" stroke-miterlimit="10"/>
<path d="M89.9799 66.3483C86.4155 63.1367 83.9601 59.1417 82.9303 54.755C82.2967 52.0133 82.4551 50.3683 82.4551 50.1333C82.4551 49.9767 82.4551 49.9767 82.4551 49.82C83.168 41.5167 89.0294 37.13 94.4947 37.13C102.97 37.13 106.772 46.4517 108.039 46.4517C109.307 46.4517 113.188 37.13 121.901 37.13C127.287 37.13 133.148 41.5167 133.94 49.82C133.94 49.9767 133.94 49.9767 133.94 50.1333C133.94 50.3683 134.099 52.0133 133.465 54.755C132.435 59.1417 129.98 63.1367 126.416 66.3483L107.96 82.6417L89.9799 66.3483Z" fill="url(#paint2_linear)"/>
<defs>
<radialGradient id="paint0_radial" cx="0" cy="0" r="1" gradientUnits="userSpaceOnUse" gradientTransform="translate(80.0176 87.6937) scale(80.0181 6.21984)">
<stop/>
<stop offset="0.764" stop-opacity="0"/>
</radialGradient>
<linearGradient id="paint1_linear" x1="108.246" y1="94.8127" x2="108.246" y2="37.3472" gradientUnits="userSpaceOnUse">
<stop stop-color="#FF0E0A"/>
<stop offset="1" stop-color="#FF0063"/>
</linearGradient>
<linearGradient id="paint2_linear" x1="108.246" y1="24.4483" x2="108.246" y2="65.1081" gradientUnits="userSpaceOnUse">
<stop stop-color="white"/>
<stop offset="1" stop-color="white" stop-opacity="0"/>
</linearGradient>
</defs>
</svg>
