<svg width="95" height="15" viewBox="0 0 95 15" fill="none" xmlns="http://www.w3.org/2000/svg">
<path fill-rule="evenodd" clip-rule="evenodd" d="M7.5 11.25L3.09161 13.5676L3.93354 8.65881L0.367076 5.18237L5.29581 4.46619L7.5 0L9.7042 4.46619L14.6329 5.18237L11.0665 8.65881L11.9084 13.5676L7.5 11.25Z" fill="#FFE70F"/>
<path fill-rule="evenodd" clip-rule="evenodd" d="M27.5 11.25L23.0916 13.5676L23.9335 8.65881L20.3671 5.18237L25.2958 4.46619L27.5 0L29.7042 4.46619L34.6329 5.18237L31.0665 8.65881L31.9084 13.5676L27.5 11.25Z" fill="#FFE70F"/>
<path fill-rule="evenodd" clip-rule="evenodd" d="M47.5 11.25L43.0916 13.5676L43.9335 8.65881L40.3671 5.18237L45.2958 4.46619L47.5 0L49.7042 4.46619L54.6329 5.18237L51.0665 8.65881L51.9084 13.5676L47.5 11.25Z" fill="#FFE70F"/>
<path fill-rule="evenodd" clip-rule="evenodd" d="M67.5 11.25L63.0916 13.5676L63.9335 8.65881L60.3671 5.18237L65.2958 4.46619L67.5 0L69.7042 4.46619L74.6329 5.18237L71.0665 8.65881L71.9084 13.5676L67.5 11.25Z" fill="#FFE70F"/>
<path fill-rule="evenodd" clip-rule="evenodd" d="M87.5 11.25L83.0916 13.5676L83.9335 8.65881L80.3671 5.18237L85.2958 4.46619L87.5 0L89.7042 4.46619L94.6329 5.18237L91.0665 8.65881L91.9084 13.5676L87.5 11.25Z" fill="#FFE70F"/>
</svg>
