<svg  class="main-svg-sprite main-svg-sprite--icons" xmlns="http://www.w3.org/2000/svg" xmlns:xlink="http://www.w3.org/1999/xlink"><symbol viewBox="0 0 110 81" id="about-text-icon" xmlns="http://www.w3.org/2000/svg"><path d="M55 6.985c19.404 0 35.195 15.85 35.195 35.328S74.404 77.642 55 77.642s-35.195-15.85-35.195-35.328S35.596 6.984 55 6.984zm0-3.358c-21.277 0-38.54 17.328-38.54 38.686C16.46 63.672 33.723 81 55 81c21.278 0 38.54-17.328 38.54-38.687C93.54 20.955 76.277 3.627 55 3.627z"/><path d="M73.467 10.075l-.134-1.344L61.96 23.776c.134.403.134.806.267 1.075h.803c3.078 0 5.487-.94 7.36-2.821 3.881-4.299 3.078-11.687 3.078-11.955zM62.494 27.403c.134.538.134 1.075.267 1.612 2.142.537 4.015.806 5.889.806 2.944 0 5.62-.672 7.895-2.015 5.353-3.224 6.825-9 6.825-9.268l.267-1.075-21.143 9.94zM86.715 28.612c-10.839 3.627-23.418 4.433-23.552 4.433v1.209l.268.134c3.747 1.88 7.226 2.955 10.572 2.955 1.605 0 3.077-.268 4.683-.671 6.022-1.88 8.698-6.985 8.832-7.254l.67-1.209-1.473.403z"/><path d="M88.723 36.269c-11.91 4.701-25.292 2.283-25.426 2.283h-.134c0 .403 0 .806-.134 1.21 4.015 3.626 8.03 5.372 12.178 5.372.535 0 1.07 0 1.472-.134 7.628-.806 12.445-7.522 12.713-7.79l1.07-1.479-1.74.538zM88.856 48.224c-16.46 1.88-25.827-3.358-25.96-3.358l-.536-.269c-.134.403-.134.672-.267 1.075l.133.134c3.346 4.836 7.36 7.657 12.044 8.329.67.134 1.472.134 2.141.134 7.093 0 12.713-4.702 12.98-4.97l1.473-1.21-2.008.135zM83.905 60.448c-14.185.269-23.15-9-23.285-9.134l-.267-.27c-.134.404-.402.807-.535 1.21 1.74 5.642 4.55 9.403 8.564 11.015 1.74.671 3.48.94 5.22.94 5.486 0 10.303-2.687 10.57-2.955l1.874-1.075-2.14.269zM75.876 69.313c-7.762-.94-16.995-10.477-18.601-12.09-.268.404-.535.94-.937 1.344 1.606 5.776 4.282 9.806 8.03 11.687 2.007.94 4.014 1.343 5.754 1.343 3.211 0 5.754-1.075 5.888-1.21l1.873-.805-2.007-.269zM62.895 76.164c-5.353-2.955-9.902-12.492-9.902-12.492l-.268-.538-.803.806c-.401 4.97.67 8.732 3.078 11.015 2.275 2.15 5.085 2.418 6.557 2.418h1.07l1.607-.269-1.339-.94zM60.487 22.836a15.599 15.599 0 0 1-1.74-3.493c-3.212-3.224-9.1-8.06-16.192-9.806l-1.472-.403.803 1.21c.401.537 9.1 13.03 17.932 13.03h.803c0-.135 0-.27-.134-.538z"/><path d="M59.148 1.343L58.345 0l-.267 1.478c-1.606 8.731-.536 14.507.669 18 .669 1.88 1.338 3.09 1.74 3.492l.267-.134.803-.134v.268c4.684-9.268-2.141-21.224-2.409-21.627zM61.557 28.88c-3.212-2.82-13.783-11.283-23.15-11.148h-1.205l.803.94c.401.537 10.84 12.09 22.348 12.09.535 0 .936 0 1.472-.135 0-.537-.134-1.075-.268-1.746zM31.046 20.149l-1.74-1.612.804 2.284c.133.268 6.958 18.806 26.764 18.806 1.605 0 3.345-.135 5.085-.403 0-.403 0-.806.133-1.21-2.944-1.208-21.544-8.73-31.046-17.865z"/><path d="M22.348 28.746l-1.606-1.343.803 2.015c.134.268 7.36 18.403 27.835 18.403 3.479 0 7.226-.538 11.508-1.746.134-.404.268-.806.268-1.21-1.74 0-18.2.672-38.808-16.119zM22.08 48.224l-1.873-.403 1.338 1.343c.134.134 8.163 8.06 20.876 8.06 4.684 0 10.036-1.075 15.79-4.164.268-.672.536-1.21.804-1.881-3.078.269-19.003.94-36.935-2.955z"/><path d="M63.163 34.254v-1.21a452.11 452.11 0 0 1-.401-4.163c0-.538-.134-1.075-.268-1.612l-.402-2.418c-.133-.403-.133-.806-.267-1.075 0-.268-.134-.537-.134-.806v-.268l-.803.134h-.401c0 .134 0 .269.133.403.402 1.88.803 3.761.937 5.507.134.672.134 1.21.268 1.881.267 2.552.267 4.97.133 7.254 0 .403 0 .806-.133 1.209a36.37 36.37 0 0 1-.803 5.507c-.134.403-.134.806-.268 1.21-.401 1.88-1.07 3.492-1.74 5.238-.267.672-.535 1.343-.802 1.88C50.45 69.18 33.455 74.016 33.187 74.15l.268 1.075c.134 0 10.17-2.955 18.6-11.418.269-.268.536-.537.804-.806a28.966 28.966 0 0 0 3.613-4.433c.268-.403.535-.94.937-1.343.936-1.478 1.873-3.09 2.542-4.836.134-.403.402-.806.535-1.209.67-1.746 1.339-3.627 1.74-5.507.134-.403.134-.672.268-1.075.267-1.612.535-3.224.669-4.836 0-.403 0-.806.134-1.209-.134-1.477-.134-2.82-.134-4.298z"/><path d="M53.26 57.224c-.133 0-18.6 6.448-26.228 6.045l-2.543-.135 2.275 1.21c.134 0 4.55 2.417 10.438 2.417 5.219 0 11.375-1.746 16.594-8.597l1.07-1.477-1.606.537zM3.345 37.343H0v13.164h3.345V37.343zM110 37.343h-3.345v13.164H110V37.343z"/></symbol><symbol viewBox="0 0 49 24" id="airplane" xmlns="http://www.w3.org/2000/svg"><path d="M5.046 20.876c-.548.28-.774.921-.534 1.482.24.56.867.841 1.441.654l16.258-5.406-3.043 4.966a.927.927 0 0 0 .12 1.134.935.935 0 0 0 1.122.187l3.19-1.655a.831.831 0 0 0 .24-.187l9.45-9.864L44.957 6.1c4.418-2.376 3.91-4.205 3.644-4.712-.2-.387-.654-.921-1.669-1.188-1.028-.28-2.402-.254-4.231.067-.614.107-.948.093-1.295.093-1.241-.04-2.096.04-6.3 2.23L12.12 14.535 3.204 9.904a1.16 1.16 0 0 0-1.068 0l-1.509.788a1.16 1.16 0 0 0-.6.787c-.067.347.013.694.227.975l6.193 7.702-1.401.72z"/></symbol><symbol viewBox="0 0 16 15" id="arrorw-right" xmlns="http://www.w3.org/2000/svg"><path d="M14.12 6.349l.88.884-7.05 7.07-.882-.883z"/><path d="M8 .212l7.051 7.071-.88.884-7.052-7.07z"/></symbol><symbol viewBox="0 0 56 22" id="burger" xmlns="http://www.w3.org/2000/svg"><path d="M0 0h56v3H0zM0 19h36v3H0z"/></symbol><symbol viewBox="0 0 40 20" id="car" xmlns="http://www.w3.org/2000/svg"><path d="M.602 9.197c.057-.677.12-1.443.243-2.104.085-.463.273-1.078.908-1.078.063 0 .127.006.19.012.04.004.078.01.143.01.001 0 .022-.02.048-.095.186-.534.968-1.199 1.971-2.011.247-.2.543-.44.67-.563-.047-.32-.04-.713.183-.984.103-.126.298-.277.633-.277.05 0 .102.003.219.013.242 0 .727-.1 1.399-.238C8.94 1.526 12.165.864 16.999.76 24.04.62 29.572 5.7 29.8 5.914l.163.152c.289.14 1.202.473 3.993 1.022 3.958.78 4.713 2.04 4.855 2.528.316.236.828.798.909 1.46.065.528.213.744.213.743l.068.088v3.725l-.008.068c-.214.99-1.24 1.513-2.964 1.513-.55 0-.963-.056-.947-.056-.024-.002-.237-.005-.606-.013a4.18 4.18 0 0 0 .253-1.413 4.157 4.157 0 0 0-4.151-4.152 4.157 4.157 0 0 0-4.152 4.152c0 .207.02.408.05.607a3.999 3.999 0 0 0 .142.64c-5.184-.11-11.781-.257-16.89-.385a4.126 4.126 0 0 0 .079-.638c.004-.075.011-.148.011-.224a4.157 4.157 0 0 0-4.152-4.152 4.154 4.154 0 0 0-4.146 4.057c0 .031-.005.063-.005.095 0 .08.007.159.012.239.007.113.018.226.033.337-.976-.161-1.71-.675-2.134-1.506-.727-1.422-.356-3.347-.096-3.755.141-.222.211-1.086.273-1.849z"/><path d="M34.799 17.13a3.512 3.512 0 1 1-6.677-.779 3.57 3.57 0 0 1-.059-.62 3.513 3.513 0 1 1 6.736 1.398zM10.073 16.575a3.513 3.513 0 0 1-3.407 2.668 3.512 3.512 0 0 1-3.497-3.2 3.445 3.445 0 0 1-.015-.313v-.008a3.513 3.513 0 0 1 7.025.008c0 .07-.006.139-.01.209a3.337 3.337 0 0 1-.096.636z"/></symbol><symbol viewBox="0 0 35 35" id="clock" xmlns="http://www.w3.org/2000/svg"><path d="M17.5 0C7.835 0 0 7.835 0 17.5 0 27.164 7.835 35 17.5 35 27.164 35 35 27.164 35 17.5 35 7.835 27.164 0 17.5 0zm7.565 20.828h-7.419c-.025 0-.048-.006-.073-.007-.025.001-.048.007-.073.007a1.21 1.21 0 0 1-1.21-1.21V7.263a1.21 1.21 0 0 1 2.42 0v11.145h6.355a1.21 1.21 0 0 1 0 2.42z"/></symbol><symbol viewBox="0 0 43 43" id="close" xmlns="http://www.w3.org/2000/svg"><path d="M2.121 1l39.598 39.598-2.121 2.121L0 3.121z"/><path d="M42.121 3L2.523 42.598.402 40.477 40 .879z"/></symbol><symbol viewBox="0 0 20 31" id="counter-icon" xmlns="http://www.w3.org/2000/svg"><path d="M10 14.498c4.013 0 7.278-3.172 7.278-7.07C17.278 3.532 14.013.36 10 .36S2.722 3.531 2.722 7.43c0 3.897 3.265 7.069 7.278 7.069zM19.964 24.298l-1.258-6.19c-.171-.843-.999-1.504-1.883-1.504H3.177c-.884 0-1.712.661-1.883 1.505L.036 24.298c-.162.8.236 1.811.908 2.301.215.157 5.31 3.844 9.056 3.844 3.745 0 8.841-3.687 9.056-3.844.672-.49 1.07-1.5.908-2.301z"/></symbol><symbol viewBox="0 0 24 24" id="envelope" xmlns="http://www.w3.org/2000/svg"><path d="M2.304 8.384c.303.214 1.218.85 2.745 1.909a673.353 673.353 0 0 1 3.509 2.444c.09.062.279.198.569.408.29.21.531.38.723.51.192.129.424.274.697.434.272.161.529.282.77.362.241.08.464.12.67.12h.027c.205 0 .428-.04.67-.12.24-.08.497-.201.77-.362.272-.16.504-.305.696-.435.192-.13.433-.299.723-.509.29-.21.48-.346.57-.408.82-.572 2.91-2.023 6.267-4.353a6.363 6.363 0 0 0 1.634-1.647C23.78 6.094 24 5.42 24 4.715c0-.59-.212-1.094-.636-1.514a2.07 2.07 0 0 0-1.507-.63H2.143c-.688 0-1.217.233-1.587.697C.186 3.732 0 4.313 0 5.01c0 .563.246 1.172.737 1.828.49.657 1.013 1.172 1.567 1.547z"/><path d="M22.66 9.817c-2.928 1.982-5.151 3.522-6.669 4.62-.509.375-.922.668-1.239.878-.317.21-.738.424-1.265.643-.527.219-1.018.328-1.473.328h-.027c-.456 0-.947-.11-1.474-.329-.526-.218-.948-.432-1.265-.642-.317-.21-.73-.503-1.239-.877-1.205-.884-3.424-2.425-6.656-4.621-.51-.34-.96-.728-1.353-1.165v10.633c0 .59.21 1.094.63 1.514.419.42.924.63 1.513.63h19.714c.59 0 1.094-.21 1.514-.63.42-.42.629-.924.629-1.514V8.652c-.384.428-.83.817-1.34 1.165z"/></symbol><symbol viewBox="0 0 18 24" id="flag" xmlns="http://www.w3.org/2000/svg"><path d="M13.55 5.528L17.73 0H0v24h1.955V11.056H17.73l-4.18-5.528z"/></symbol><symbol viewBox="0 0 24 24" id="menu" xmlns="http://www.w3.org/2000/svg"><path d="M3 18h18v-2H3v2zm0-5h18v-2H3v2zm0-7v2h18V6H3z"/></symbol><symbol viewBox="0 0 33 35" id="phone-icon" xmlns="http://www.w3.org/2000/svg"><path d="M29.157 24.36c-2.115-1.808-4.26-2.904-6.349-1.098l-1.247 1.091c-.912.793-2.609 4.494-9.168-3.05-6.557-7.536-2.655-8.71-1.741-9.495l1.254-1.093c2.077-1.81 1.293-4.088-.205-6.433l-.904-1.42C9.292.522 7.653-1.015 5.57.792l-1.126.984c-.92.67-3.494 2.85-4.118 6.992-.751 4.969 1.619 10.659 7.048 16.902 5.422 6.246 10.732 9.383 15.76 9.329 4.18-.045 6.704-2.288 7.494-3.103l1.13-.985c2.077-1.806.786-3.644-1.33-5.457l-1.271-1.094z"/></symbol><symbol viewBox="0 0 40 32" id="price" xmlns="http://www.w3.org/2000/svg"><path d="M10.789 30.742c1.2 1.2 3.146 1.2 4.345 0l14.875-14.875c.427-.428.756-.937.97-1.479 1.495.419 2.948.64 4.23.633 3.17-.017 4.222-1.405 4.567-2.235.345-.821.591-2.546-1.635-4.813l-.074-.074c-1.38-1.38-3.384-2.653-5.66-3.598a29.618 29.618 0 0 0-1.248-.476V3.8A3.363 3.363 0 0 0 27.841.482L18.929.359a4.334 4.334 0 0 0-3.146 1.281L.899 16.515a3.074 3.074 0 0 0 0 4.346l9.89 9.88zm11.466-25.06a2.543 2.543 0 0 1 3.598 0c.591.59.83 1.404.715 2.168.977.69 2.143 1.33 3.392 1.848.444.18.87.345 1.281.485L31.192 6.6c.074.033.14.058.214.09 1.946.814 3.696 1.915 4.821 3.04l.05.05c1.067 1.092 1.182 1.79 1.092 2.003-.28.666-3.277 1.257-7.828-.64-1.33-.559-2.579-1.249-3.59-1.996-.032.04-.073.082-.106.123a2.543 2.543 0 0 1-3.598 0 2.54 2.54 0 0 1 .008-3.59z"/></symbol><symbol viewBox="0 0 32 32" id="search" xmlns="http://www.w3.org/2000/svg"><path d="M19.427 20.427a8.5 8.5 0 1 1 2-2l5.585 5.585c.55.55.546 1.431 0 1.976l-.023.023a1.398 1.398 0 0 1-1.976 0l-5.585-5.585zM14.5 20a6.5 6.5 0 1 0 0-13 6.5 6.5 0 0 0 0 13z"/></symbol><symbol viewBox="0 0 24 24" id="skype" xmlns="http://www.w3.org/2000/svg"><path d="M22.75 14.344c.167-.803.25-1.584.25-2.344 0-1.49-.289-2.914-.867-4.274-.578-1.359-1.36-2.53-2.344-3.515-.984-.985-2.156-1.766-3.515-2.344A10.814 10.814 0 0 0 12 1c-.76 0-1.541.083-2.343.25A5.845 5.845 0 0 0 6 0C4.344 0 2.93.586 1.758 1.758.586 2.93 0 4.344 0 6c0 1.354.417 2.573 1.25 3.656C1.084 10.458 1 11.24 1 12c0 1.49.29 2.914.867 4.273.578 1.36 1.36 2.532 2.344 3.516.985.984 2.156 1.765 3.516 2.344C9.087 22.71 10.51 23 12 23c.76 0 1.542-.084 2.345-.25A5.843 5.843 0 0 0 18 24c1.657 0 3.07-.586 4.242-1.758C23.414 21.07 24 19.656 24 18a5.849 5.849 0 0 0-1.25-3.656zm-4.938 2.32a4.047 4.047 0 0 1-1.382 1.461 7.124 7.124 0 0 1-1.914.836 8.186 8.186 0 0 1-2.188.289c-1.76 0-3.275-.341-4.546-1.024-1.271-.682-1.907-1.502-1.907-2.46 0-.47.133-.86.399-1.172.265-.313.659-.469 1.18-.469.302 0 .583.083.843.25.26.167.5.367.719.602.219.234.456.468.71.703.256.234.594.435 1.016.602.422.166.899.25 1.43.25.677 0 1.224-.133 1.64-.398.417-.266.626-.602.626-1.008 0-.417-.167-.73-.5-.938-.229-.146-.812-.334-1.75-.563l-2.281-.563a9.666 9.666 0 0 1-1.61-.507 5.298 5.298 0 0 1-1.25-.758 2.96 2.96 0 0 1-.875-1.18c-.198-.473-.297-1.028-.297-1.664 0-.76.175-1.43.524-2.007a3.782 3.782 0 0 1 1.39-1.36 7.187 7.187 0 0 1 1.868-.734 8.727 8.727 0 0 1 2.062-.242c1 0 1.948.12 2.844.359.895.24 1.635.591 2.218 1.055.583.463.875.981.875 1.554 0 .469-.148.87-.445 1.203-.297.334-.69.5-1.18.5-.27 0-.52-.062-.75-.187a3.004 3.004 0 0 1-.625-.453 11.859 11.859 0 0 0-.594-.524c-.208-.172-.49-.32-.843-.445a3.604 3.604 0 0 0-1.203-.188c-1.5 0-2.25.401-2.25 1.203 0 .177.039.334.117.47.078.135.164.244.258.327.093.084.25.167.468.25.22.084.402.144.547.18.146.037.375.091.688.164l1.625.375c.51.115.966.235 1.367.36s.83.302 1.29.53c.457.23.838.485 1.14.766.302.282.554.638.758 1.07.203.433.304.91.304 1.43 0 .76-.171 1.446-.516 2.055z"/></symbol><symbol viewBox="0 0 37 24" id="train" xmlns="http://www.w3.org/2000/svg"><path d="M16.187 18.95c-5.232 0-10.464-.008-15.697.009-.4 0-.498-.108-.49-.504.024-1.777.024-3.554 0-5.33-.008-.414.122-.513.507-.488.62.033 1.25.016 1.88.008.842-.008 1.365-.513 1.365-1.364a476.84 476.84 0 0 0 0-4.835c-.008-.909-.507-1.388-1.414-1.388-.67 0-1.333-.008-2.003.008C.09 5.075 0 5 0 4.744c.008-1.471.008-2.95 0-4.421C0 .09.065-.017.302.008c.082.009.164 0 .245 0C7.194.008 13.85.033 20.495 0c3.017-.016 5.543 1.017 7.653 3.199 2.321 2.405 4.709 4.743 7.039 7.14 2.19 2.256 1.888 5.876-.605 7.67-.908.652-1.922.942-3.033.942H16.187zM12.5 5.067c-1.643 0-3.295-.008-4.938 0-.785 0-1.308.538-1.308 1.323a482.79 482.79 0 0 0 0 4.867c0 .86.523 1.389 1.382 1.389 3.253.008 6.507.008 9.761 0 .826 0 1.357-.546 1.357-1.372.008-1.612.008-3.223 0-4.827 0-.867-.523-1.38-1.382-1.38-1.627-.008-3.245 0-4.872 0zm14.176 7.579h4.17c.572 0 1.013-.24 1.234-.777.22-.537.106-1.025-.302-1.438-1.53-1.529-3.05-3.074-4.57-4.612-.507-.512-1.112-.768-1.832-.76-.9.008-1.798 0-2.698 0-.94 0-1.414.471-1.422 1.405a458.994 458.994 0 0 0 0 4.752c0 .926.507 1.43 1.414 1.43h4.006zM16.228 24c1.897 0 3.466-1.413 3.728-3.256a.475.475 0 0 0-.466-.545h-6.524a.48.48 0 0 0-.466.545C12.762 22.587 14.331 24 16.228 24zM24.297 24c1.897 0 3.467-1.413 3.728-3.256a.475.475 0 0 0-.466-.545h-6.524a.48.48 0 0 0-.466.545C20.831 22.587 22.401 24 24.297 24z"/></symbol></svg>