<svg class="main-svg-sprite main-svg-sprite--icons" xmlns="http://www.w3.org/2000/svg">
    <symbol viewBox="0 0 49 24" id="airplane" xmlns="http://www.w3.org/2000/svg">
        <path
            d="M5.046 20.876c-.548.28-.774.921-.534 1.482.24.56.867.841 1.441.654l16.258-5.406-3.043 4.966a.927.927 0 0 0 .12 1.134.935.935 0 0 0 1.122.187l3.19-1.655a.831.831 0 0 0 .24-.187l9.45-9.864L44.957 6.1c4.418-2.376 3.91-4.205 3.644-4.712-.2-.387-.654-.921-1.669-1.188-1.028-.28-2.402-.254-4.231.067-.614.107-.948.093-1.295.093-1.241-.04-2.096.04-6.3 2.23L12.12 14.535 3.204 9.904a1.16 1.16 0 0 0-1.068 0l-1.509.788a1.16 1.16 0 0 0-.6.787c-.067.347.013.694.227.975l6.193 7.702-1.401.72z"/>
    </symbol>

    <symbol id="double_bed" viewBox="-10 -100 682 600" xmlns="http://www.w3.org/2000/svg">
        <g fill-rule="evenodd">
            <path
                d="m609.648438 219.628906v-212.546875c0-6.902343-5.59375-12.5-12.5-12.5h-227.148438c-6.90625 0-12.5 5.597657-12.5 12.5 0 6.90625 5.59375 12.5 12.5 12.5h214.648438v180.808594c-13.417969-7.496094-28.585938-12.1875-44.726563-13.320313 1.546875-24.480468.550781-49.683593-3.023437-76.632812-1.921876-14.457031-12.25-29.097656-28.28125-29.097656-1.421876 0-2.859376.128906-4.28125.371094-24.394532 4.191406-45.476563 6.140624-66.359376 6.140624-20.796874 0-42.28125-1.953124-67.625-6.152343-1.375-.226563-2.765624-.34375-4.132812-.34375-13.765625 0-25.121094 11.441406-28.253906 28.46875-4.636719 25.183593-5.855469 50.488281-3.707032 76.945312h-28.515624c2.144531-26.464843.929687-51.765625-3.707032-76.945312-3.132812-17.027344-14.488281-28.46875-28.253906-28.46875-1.367188 0-2.761719.113281-4.136719.34375-25.339843 4.199219-46.824219 6.152343-67.621093 6.152343-20.882813 0-41.964844-1.953124-66.359376-6.140624-1.425781-.242188-2.867187-.371094-4.28125-.371094-16.03125 0-26.363281 14.640625-28.28125 29.097656-3.578124 26.945312-4.570312 52.148438-3.023437 76.632812-16.140625 1.132813-31.3125 5.828126-44.730469 13.320313v-180.808594h214.652344c6.90625 0 12.5-5.59375 12.5-12.5 0-6.902343-5.59375-12.5-12.5-12.5h-227.148438c-6.90625 0-12.5 5.597657-12.5 12.5v212.546875c-18.765624 19.386719-30.351562 45.769532-30.351562 74.824219v155.207031c0 6.90625 5.59375 12.5 12.5 12.5h67.539062c6.90625 0 12.5-5.59375 12.5-12.5 0-24.894531 20.257813-45.15625 45.15625-45.15625h132.304688c6.90625 0 12.5-5.59375 12.5-12.5 0-6.902344-5.59375-12.5-12.5-12.5h-132.304688c-34.417968 0-63.128906 24.917969-69.039062 57.65625h-43.65625v-122.15625h590v122.15625h-43.65625c-5.910156-32.738281-34.621094-57.65625-69.039062-57.65625h-132.304688c-6.90625 0-12.5 5.597656-12.5 12.5 0 6.90625 5.59375 12.5 12.5 12.5h132.304688c24.898437 0 45.15625 20.261719 45.15625 45.15625 0 6.90625 5.59375 12.5 12.5 12.5h67.539062c6.90625 0 12.5-5.59375 12.5-12.5v-155.207031c0-29.054687-11.585938-55.4375-30.351562-74.824219zm-247.101563-105.28125c.847656-4.574218 2.921875-7.371094 3.816406-7.972656 26.679688 4.417969 49.4375 6.476562 71.613281 6.476562 22.3125 0 44.71875-2.0625 70.5625-6.496093.851563.460937 3.015626 3.160156 3.574219 7.375 3.425781 25.78125 4.347657 49.792969 2.785157 73.039062h-155.566407c-2.191406-25-1.128906-48.792969 3.214844-72.421875zm-234.660156-.617187c.558593-4.214844 2.722656-6.921875 3.578125-7.375 25.808594 4.429687 48.238281 6.496093 70.558594 6.496093 22.160156 0 44.910156-2.058593 71.613281-6.476562.894531.601562 2.96875 3.398438 3.816406 7.96875 4.34375 23.628906 5.40625 47.421875 3.210937 72.425781h-155.5625c-1.5625-23.25-.644531-47.257812 2.785157-73.039062zm-102.769531 176.273437c1.152343-21.660156 10.6875-41.128906 25.398437-55.230468.542969-.417969 1.042969-.882813 1.507813-1.382813 14.699218-13.410156 34.230468-21.621094 55.652343-21.621094h424.648438c21.417969 0 40.949219 8.203125 55.648437 21.613281.464844.507813.972656.976563 1.515625 1.394532 14.710938 14.101562 24.242188 33.570312 25.394531 55.226562zm0 0"/>
            <path
                d="m320 19.582031c6.882812 0 12.5-5.613281 12.5-12.5 0-6.882812-5.617188-12.5-12.5-12.5s-12.5 5.617188-12.5 12.5c0 6.886719 5.617188 12.5 12.5 12.5zm0 0"/>
            <path
                d="m320 379.503906c-6.882812 0-12.5 5.617188-12.5 12.5 0 6.886719 5.617188 12.5 12.5 12.5s12.5-5.613281 12.5-12.5c0-6.878906-5.617188-12.5-12.5-12.5zm0 0"/>
        </g>
    </symbol>

    <symbol id="bed" viewBox="-20 0 512 512" xmlns="http://www.w3.org/2000/svg">
        <path
            d="m460.535156 356.929688c7.429688-12.832032 11.324219-27.289063 11.324219-42.421876 0-23.03125-9.21875-43.941406-24.140625-59.269531v-220.339843c0-19.242188-15.65625-34.898438-34.898438-34.898438h-46.726562c-4.140625 0-7.5 3.355469-7.5 7.5s3.359375 7.5 7.5 7.5h46.726562c10.972657 0 19.898438 8.925781 19.898438 19.898438v208.078124c-10.300781-6.632812-22.109375-11.09375-34.796875-12.757812v-160.464844c0-11.007812-8.953125-19.960937-19.957031-19.960937h-284.070313c-11.003906 0-19.957031 8.953125-19.957031 19.960937v160.464844c-12.6875 1.664062-24.496094 6.125-34.792969 12.757812v-208.078124c0-10.972657 8.925781-19.898438 19.894531-19.898438h279.054688c4.140625 0 7.5-3.355469 7.5-7.5s-3.359375-7.5-7.5-7.5h-279.054688c-19.242187 0-34.894531 15.65625-34.894531 34.898438v220.339843c-14.925781 15.328125-24.144531 36.238281-24.144531 59.273438 0 15.128906 3.894531 29.585937 11.324219 42.417969-6.707031 3.421874-11.324219 10.382812-11.324219 18.417968v115.976563c0 11.402343 9.273438 20.675781 20.675781 20.675781h26.066407c11.398437 0 20.671874-9.273438 20.671874-20.675781 0-25.664063 20.882813-46.546875 46.550782-46.546875h243.933594c25.667968 0 46.546874 20.882812 46.546874 46.546875 0 11.402343 9.277344 20.675781 20.675782 20.675781h26.066406c11.398438 0 20.675781-9.273438 20.675781-20.675781v-115.976563c-.003906-8.035156-4.617187-14.996094-11.328125-18.417968zm-366.640625-292.136719h284.070313c2.730468 0 4.957031 2.226562 4.957031 4.960937v159.71875h-24.871094v-99.101562c0-19.777344-16.089843-35.867188-35.871093-35.867188h-172.5c-19.777344 0-35.867188 16.089844-35.867188 35.867188v99.101562h-24.875v-159.71875c0-2.734375 2.222656-4.960937 4.957031-4.960937zm-8.855469 179.679687h98.617188c4.140625 0 7.5-3.359375 7.5-7.5 0-4.144531-3.359375-7.5-7.5-7.5h-54.847656v-99.101562c0-11.503906 9.363281-20.867188 20.871094-20.867188h172.5c11.507812 0 20.871093 9.363282 20.871093 20.867188v99.101562h-131.394531c-4.144531 0-7.5 3.355469-7.5 7.5 0 4.140625 3.355469 7.5 7.5 7.5h175.164062c38.621094 0 70.039063 31.417969 70.039063 70.039063 0 14.558593-4.371094 28.367187-12.660156 40.160156h-416.539063c-8.289062-11.792969-12.660156-25.601563-12.660156-40.160156 0-38.621094 31.417969-70.039063 70.039062-70.039063zm371.820313 246.851563c0 3.128906-2.546875 5.675781-5.675781 5.675781h-26.066406c-3.128907 0-5.671876-2.546875-5.671876-5.675781 0-33.9375-27.609374-61.546875-61.546874-61.546875h-243.9375c-33.9375 0-61.546876 27.609375-61.546876 61.546875 0 3.128906-2.546874 5.675781-5.675781 5.675781h-26.0625c-3.128906 0-5.675781-2.546875-5.675781-5.675781v-115.976563c0-3.128906 2.546875-5.675781 5.675781-5.675781h3.152344c.019531 0 .035156.003906.054687.003906.011719 0 .023438-.003906.035157-.003906h424.035156c.011719 0 .019531.003906.027344.003906.011719 0 .023437-.003906.035156-.003906h3.167969c3.128906 0 5.675781 2.546875 5.675781 5.675781zm0 0"/>
    </symbol>


    <symbol id="sofa" xmlns="http://www.w3.org/2000/svg" viewBox="0 0 384 384"
            style="enable-background:new 0 0 384 384;" xml:space="preserve">

        <path d="M382.417,146.76c-4.698-19.198-20.898-34.833-40.305-38.896c-1.602-0.336-3.199-0.277-4.804-0.469
            C322.869,44.792,267.832,0,202.683,0h-21.335C116.211,0,61.165,44.801,46.719,107.397c-10.208,1.294-19.961,5.198-27.925,11.967
            C6.855,129.521,0,144.333,0,160c0,16.677,8.042,32.427,21.335,42.448v96.219c0,15.725,8.643,29.333,21.335,36.733V352
            c0,17.646,14.355,32,32.003,32s32.003-14.354,32.003-32v-10.667h170.681V352c0,17.646,14.355,32,32.003,32
            s32.003-14.354,32.003-32v-16.6c12.692-7.4,21.335-21.008,21.335-36.733v-96.208C379.75,189.667,387.615,168.042,382.417,146.76z
             M181.333,21.333h21.333c54.017,0,99.757,36.421,113.085,87.714c-6.724,1.96-13.126,5.023-18.689,9.536
            c-12.542,10.187-19.729,25.281-19.729,41.417v53.333H106.667v-51.052c0-24.93-16.172-46.656-38.408-53.293
            C81.599,57.734,127.341,21.333,181.333,21.333z M298.667,245.333c0,5.885-4.781,10.667-10.667,10.667H96
            c-5.885,0-10.667-4.781-10.667-10.667c0-5.885,4.781-10.667,10.667-10.667h192C293.885,234.667,298.667,239.448,298.667,245.333z
             M85.333,352c0,5.885-4.781,10.667-10.667,10.667C68.781,362.667,64,357.885,64,352v-10.667h21.333V352z M320,352
            c0,5.885-4.781,10.667-10.667,10.667c-5.885,0-10.667-4.781-10.667-10.667v-10.667H320V352z M346.635,187.531
            c-3.281,1.906-5.302,5.417-5.302,9.219v101.917c0,11.76-9.573,21.333-21.333,21.333H64c-11.76,0-21.333-9.573-21.333-21.333
            V196.75c0-3.792-2.021-7.302-5.302-9.219C27.323,181.688,21.333,171.396,21.333,160c0-9.396,4.115-18.292,11.281-24.385
            c7.271-6.188,16.594-8.729,26.167-7.167c15.135,2.458,26.552,17.01,26.552,33.833v53.017C72.944,219.716,64,231.445,64,245.333
            c0,17.646,14.354,32,32,32h192c17.646,0,32-14.354,32-32c0-13.888-8.944-25.617-21.333-30.035V160
            c0-9.688,4.313-18.74,11.844-24.854c7.635-6.198,17.292-8.479,27.198-6.406c11.542,2.417,21.167,11.698,23.948,23.083
            C365.167,166.167,359.271,180.177,346.635,187.531z"/>

    </symbol>


    <symbol id="parking" viewBox="0 0 512 434" xmlns="http://www.w3.org/2000/svg">

        <path
            d="M427.971,42.562 L402.98,42.562 C399.249,42.562 396.887,44.925 396.887,47.536 L396.886,47.536 L396.886,128.355 C396.886,131.712 400.865,133.453 404.968,133.453 C408.947,133.453 413.05,131.713 413.05,128.355 L413.05,99.509 L426.977,99.509 C443.389,99.509 456.196,91.675 456.196,71.284 L456.196,70.539 C456.196,50.147 443.762,42.562 427.971,42.562 Z M440.031,72.528 C440.031,82.226 435.058,86.827 426.976,86.827 L413.05,86.827 L413.05,56.737 L426.976,56.737 C435.058,56.737 440.031,61.338 440.031,71.036 L440.031,72.528 Z"
            id="Shape"></path>
        <path
            d="M358.922,275.919 C355.766,274.182 352.652,272.28 349.668,270.264 L301.423,237.672 C286.781,227.78 269.701,222.552 252.031,222.552 L163.48,222.552 C139.975,222.552 117.859,231.689 101.205,248.279 C92.645,256.808 82.893,263.942 72.22,269.484 C65.908,272.762 61.987,279.213 61.987,286.32 C61.987,296.786 70.501,305.3 80.967,305.3 L111.157,305.3 C115.185,305.3 118.451,302.034 118.451,298.006 C118.451,293.978 115.185,290.712 111.157,290.712 L80.967,290.712 C78.545,290.712 76.574,288.741 76.574,286.319 C76.574,284.678 77.481,283.188 78.942,282.43 C90.933,276.204 101.888,268.19 111.5,258.613 C125.4,244.765 143.86,237.139 163.479,237.139 L183.304,237.139 L183.304,290.712 L159.072,290.712 C155.044,290.712 151.778,293.978 151.778,298.006 C151.778,302.034 155.044,305.3 159.072,305.3 L359.07,305.3 C365.066,305.3 369.944,300.422 369.944,294.426 C369.944,286.748 365.72,279.656 358.922,275.919 Z M197.894,290.713 L197.894,237.14 L252.032,237.14 C266.781,237.14 281.037,241.504 293.258,249.76 L341.503,282.352 C344.853,284.615 348.348,286.751 351.894,288.701 C352.812,289.206 353.581,289.9 354.159,290.713 L197.894,290.713 L197.894,290.713 Z"
            id="Shape"></path>
        <path
            d="M215.966,316.388 L193.436,316.388 C189.408,316.388 186.142,319.654 186.142,323.682 C186.142,327.71 189.408,330.976 193.436,330.976 L215.966,330.976 C219.994,330.976 223.26,327.71 223.26,323.682 C223.26,319.654 219.994,316.388 215.966,316.388 Z"
            id="Path"></path>
        <path
            d="M505.709,310.266 L503.405,306.442 C494.722,292.033 480.279,281.887 463.78,278.605 L444.949,274.86 L444.949,179.413 L493.681,179.413 C503.715,179.413 511.877,171.25 511.877,161.217 L511.877,19.166 C511.877,9.132 503.714,0.97 493.681,0.97 L351.63,0.97 C341.596,0.97 333.434,9.133 333.434,19.166 L333.434,73.051 C333.434,77.079 336.699,80.345 340.728,80.345 C344.757,80.345 348.022,77.079 348.022,73.051 L348.022,19.166 C348.022,17.176 349.641,15.557 351.631,15.557 L493.683,15.557 C495.673,15.557 497.292,17.176 497.292,19.166 L497.292,161.218 C497.292,163.208 495.673,164.827 493.683,164.827 L351.63,164.827 C349.64,164.827 348.021,163.208 348.021,161.218 L348.021,120.469 C348.021,116.441 344.756,113.175 340.727,113.175 C336.698,113.175 333.433,116.441 333.433,120.469 L333.433,161.218 C333.433,171.252 341.596,179.414 351.629,179.414 L406.89,179.414 L406.89,267.293 L397.21,265.368 C383.85,262.711 370.825,254.648 362.189,248.813 L313.945,216.222 C295.59,203.823 274.181,197.269 252.031,197.269 L163.481,197.269 C134.016,197.269 106.293,208.722 85.42,229.517 C72.212,242.676 55.586,251.651 37.339,255.473 L26.867,257.666 C11.299,260.926 0,274.838 0,290.744 L0,361.384 C0,369.81 4.975,377.467 12.676,380.889 L41.728,393.801 C43.485,402.988 47.911,411.761 55.009,418.859 C64.442,428.292 76.833,433.009 89.225,433.009 C101.617,433.009 114.007,428.292 123.441,418.859 C129.508,412.792 133.612,405.499 135.777,397.772 L378.013,397.772 C380.178,405.499 384.283,412.792 390.35,418.859 C399.49,427.998 411.64,433.032 424.566,433.032 C437.491,433.032 449.643,427.999 458.783,418.859 C464.85,412.792 468.954,405.499 471.119,397.772 L484.956,397.772 C499.869,397.772 512.002,385.639 512.002,370.726 L512.002,332.894 C512.002,324.92 509.824,317.096 505.709,310.266 Z M421.478,179.413 L430.362,179.413 L430.362,271.959 L421.478,270.192 L421.478,179.413 Z M113.125,408.545 C106.741,414.929 98.253,418.445 89.224,418.445 C80.195,418.445 71.707,414.929 65.323,408.545 C55.082,398.304 52.804,383.075 58.478,370.609 C58.524,370.509 58.568,370.408 58.614,370.308 C58.787,369.938 58.97,369.572 59.157,369.208 C59.245,369.036 59.333,368.865 59.425,368.695 C59.594,368.379 59.77,368.065 59.95,367.753 C60.074,367.538 60.201,367.325 60.33,367.113 C60.497,366.838 60.666,366.564 60.842,366.293 C61.001,366.048 61.165,365.806 61.331,365.565 C61.495,365.326 61.658,365.086 61.828,364.851 C62.023,364.582 62.226,364.318 62.43,364.054 C62.589,363.848 62.744,363.64 62.908,363.437 C63.148,363.14 63.399,362.85 63.649,362.56 C63.792,362.395 63.929,362.226 64.075,362.063 C64.447,361.65 64.83,361.245 65.224,360.848 C65.258,360.814 65.289,360.778 65.323,360.744 C65.398,360.669 65.477,360.599 65.553,360.525 C65.887,360.197 66.223,359.873 66.566,359.562 C66.655,359.481 66.749,359.406 66.839,359.326 C67.181,359.023 67.525,358.722 67.877,358.435 C67.91,358.408 67.945,358.383 67.978,358.356 C80.341,348.351 98.172,348.363 110.52,358.396 C110.534,358.408 110.549,358.418 110.564,358.43 C110.941,358.737 111.31,359.059 111.677,359.385 C111.743,359.443 111.811,359.498 111.876,359.557 C112.3,359.94 112.716,360.335 113.124,360.743 C113.564,361.183 113.988,361.636 114.4,362.095 C114.581,362.297 114.752,362.504 114.927,362.709 C115.141,362.959 115.356,363.21 115.562,363.465 C115.793,363.752 116.016,364.044 116.236,364.336 C116.36,364.499 116.483,364.663 116.603,364.828 C116.87,365.196 117.13,365.568 117.381,365.945 C117.424,366.009 117.466,366.074 117.508,366.138 C126.088,379.243 124.628,397.041 113.125,408.545 Z M448.466,408.545 C442.081,414.929 433.593,418.445 424.564,418.445 C415.535,418.445 407.048,414.929 400.664,408.545 C389.159,397.041 387.699,379.24 396.28,366.136 C396.321,366.073 396.362,366.01 396.404,365.948 C396.655,365.57 396.916,365.197 397.184,364.827 C397.303,364.663 397.425,364.501 397.548,364.34 C397.769,364.046 397.993,363.753 398.226,363.464 C398.431,363.211 398.643,362.963 398.856,362.715 C399.033,362.508 399.206,362.298 399.389,362.095 C399.801,361.636 400.225,361.184 400.665,360.744 C407.049,354.36 415.536,350.844 424.565,350.844 C433.594,350.844 442.082,354.36 448.466,360.744 C448.906,361.184 449.33,361.637 449.742,362.096 C449.924,362.298 450.095,362.506 450.271,362.712 C450.485,362.961 450.699,363.211 450.904,363.465 C451.136,363.753 451.359,364.045 451.58,364.338 C451.703,364.501 451.826,364.664 451.946,364.829 C452.213,365.198 452.474,365.569 452.724,365.946 C452.767,366.01 452.809,366.074 452.851,366.138 C461.429,379.242 459.969,397.042 448.466,408.545 Z M497.415,370.726 L497.415,370.726 C497.415,377.596 491.824,383.186 484.954,383.186 L472.946,383.186 C472.66,372.606 468.926,362.513 462.206,354.238 C462.161,354.182 462.118,354.124 462.072,354.068 C461.656,353.561 461.225,353.064 460.787,352.57 C460.675,352.444 460.569,352.314 460.456,352.188 C459.992,351.677 459.512,351.176 459.024,350.682 C458.941,350.598 458.865,350.51 458.781,350.427 C452.497,344.144 444.79,339.801 436.387,337.701 C432.567,336.746 428.604,336.255 424.564,336.255 C421.333,336.255 418.15,336.57 415.05,337.184 C405.751,339.028 397.203,343.573 390.348,350.427 C390.266,350.509 390.191,350.595 390.11,350.678 C389.62,351.175 389.138,351.677 388.673,352.19 C388.563,352.311 388.461,352.437 388.353,352.559 C387.911,353.057 387.475,353.559 387.056,354.071 C387.014,354.122 386.975,354.175 386.933,354.227 C380.208,362.503 376.47,372.602 376.183,383.186 L137.605,383.186 C137.318,372.589 133.572,362.478 126.83,354.195 C126.799,354.156 126.769,354.117 126.738,354.078 C126.298,353.54 125.841,353.013 125.376,352.491 C125.29,352.395 125.21,352.296 125.123,352.2 C124.578,351.599 124.018,351.007 123.439,350.428 C121.081,348.07 118.537,346.006 115.856,344.237 C107.81,338.931 98.517,336.278 89.224,336.278 C76.833,336.278 64.441,340.995 55.008,350.428 C54.469,350.967 53.948,351.52 53.438,352.08 C53.287,352.246 53.142,352.415 52.993,352.582 C52.633,352.989 52.279,353.4 51.934,353.816 C51.781,354.001 51.628,354.187 51.478,354.375 C51.121,354.82 50.773,355.27 50.433,355.725 C50.327,355.867 50.218,356.006 50.115,356.149 C49.201,357.4 48.353,358.69 47.569,360.013 C47.547,360.05 47.526,360.088 47.504,360.125 C47.121,360.776 46.754,361.436 46.403,362.103 C46.393,362.122 46.383,362.142 46.372,362.161 C43.829,367 42.119,372.234 41.335,377.663 L18.602,367.559 C16.164,366.475 14.589,364.051 14.589,361.384 L14.589,290.744 C14.589,281.703 21.012,273.796 29.861,271.942 L40.333,269.749 C61.353,265.346 80.505,255.007 95.719,239.85 C113.839,221.797 137.905,211.855 163.484,211.855 L252.034,211.855 C271.263,211.855 289.848,217.545 305.782,228.308 L354.026,260.899 C363.707,267.44 378.422,276.502 394.367,279.674 L460.937,292.912 C473.419,295.395 484.344,303.07 490.913,313.97 L493.217,317.794 C495.964,322.351 497.415,327.573 497.415,332.894 L497.415,370.726 L497.415,370.726 Z"
            id="Shape"></path>
        <path
            d="M104.883,368.986 C100.699,364.803 95.139,362.5 89.224,362.5 C83.309,362.5 77.748,364.804 73.566,368.986 C69.384,373.168 67.08,378.729 67.08,384.644 C67.08,390.559 69.384,396.12 73.566,400.302 C77.748,404.484 83.309,406.788 89.225,406.788 C95.14,406.788 100.701,404.485 104.883,400.302 C113.517,391.668 113.517,377.62 104.883,368.986 Z M94.567,389.987 C93.14,391.414 91.242,392.2 89.224,392.2 C87.205,392.2 85.308,391.414 83.881,389.986 C82.454,388.559 81.667,386.662 81.667,384.643 C81.667,382.624 82.453,380.727 83.881,379.3 C85.308,377.873 87.205,377.086 89.224,377.086 C91.242,377.086 93.14,377.872 94.567,379.3 C97.513,382.247 97.513,387.041 94.567,389.987 Z"
            id="Shape"></path>
        <path
            d="M440.223,368.987 C436.041,364.804 430.48,362.5 424.564,362.5 C418.649,362.5 413.089,364.803 408.905,368.986 C400.272,377.62 400.272,391.668 408.905,400.302 C413.088,404.485 418.649,406.788 424.564,406.788 C430.48,406.788 436.04,404.485 440.222,400.303 C444.405,396.121 446.708,390.56 446.708,384.645 C446.708,378.73 444.405,373.169 440.223,368.987 Z M429.907,389.988 C428.48,391.415 426.583,392.201 424.564,392.201 C422.546,392.201 420.648,391.415 419.221,389.988 C416.275,387.042 416.275,382.248 419.221,379.302 C420.648,377.875 422.546,377.088 424.564,377.088 C426.583,377.088 428.48,377.874 429.908,379.302 C431.335,380.729 432.121,382.626 432.121,384.645 C432.121,386.662 431.336,388.56 429.907,389.988 Z"
            id="Shape"></path>

    </symbol>

    <symbol id="bathroom" enable-background="new 0 0 510.147 510.147" viewBox="0 0 510.147 510.147"
            xmlns="http://www.w3.org/2000/svg">
        <g>
            <path
                d="m285.675 371.185c-.574-8.265-7.739-14.5-16.003-13.925-8.264.574-14.499 7.738-13.925 16.003l1.003 14.452c.573 8.255 7.725 14.497 16.003 13.925 8.264-.574 14.499-7.738 13.925-16.003z"/>
            <path
                d="m356.766 334.257c-3.344-7.58-12.2-11.013-19.778-7.669-7.58 3.344-11.013 12.199-7.669 19.778l5.5 12.468c3.343 7.578 12.197 11.014 19.778 7.669 7.579-3.344 11.013-12.199 7.669-19.778z"/>
            <path
                d="m426.228 298.047c-5.715-5.994-15.211-6.221-21.207-.503-5.995 5.717-6.22 15.212-.503 21.207l9.998 10.483c5.715 5.994 15.211 6.222 21.207.503 5.995-5.717 6.22-15.212.503-21.207z"/>
            <path
                d="m267.759 448.691c-8.274.404-14.654 7.44-14.25 15.714l.731 14.956c.404 8.275 7.441 14.655 15.714 14.25 8.274-.404 14.654-7.44 14.25-15.714l-.731-14.956c-.404-8.275-7.444-14.648-15.714-14.25z"/>
            <path
                d="m354.907 427.628c-2.354-7.943-10.703-12.474-18.645-10.118-7.943 2.354-12.473 10.702-10.118 18.645l4.005 13.511c2.357 7.952 10.712 12.471 18.645 10.118 7.943-2.354 12.473-10.702 10.118-18.645z"/>
            <path
                d="m425.403 392.362c-4.279-7.094-13.499-9.376-20.592-5.096-7.094 4.279-9.375 13.498-5.096 20.592l7.279 12.067c4.278 7.093 13.497 9.376 20.592 5.096 7.094-4.279 9.375-13.499 5.096-20.592z"/>
            <path
                d="m505.788 368.379-10.554-10.622c-5.838-5.876-15.335-5.908-21.213-.068-5.877 5.839-5.907 15.336-.068 21.213l10.554 10.622c5.832 5.871 15.331 5.913 21.213.068 5.876-5.839 5.906-15.337.068-21.213z"/>
            <path
                d="m430.4 199.334-4.541-10.2c-7.506-16.863-25.321-25.978-42.746-23.249l-2.801-6.294c-16.317-36.646-54.769-56.826-93.181-50.682l-9.854-22.389c-23.115-52.514-75.128-86.447-132.507-86.447-79.827 0-144.77 64.944-144.77 144.77v350.23c0 8.284 6.716 15 15 15h60c8.284 0 15-6.716 15-15v-350.23c0-30.2 24.57-54.77 54.77-54.77 21.709 0 41.387 12.836 50.132 32.705l10.583 24.036c-27.506 24.941-36.453 65.054-20.936 99.924l2.804 6.292c-13.432 10.895-18.947 30.109-11.293 47.302l4.541 10.2c9.926 22.299 36.061 32.487 58.546 22.478l168.776-75.131c22.338-9.942 32.421-36.206 22.477-58.545zm-77.494-27.541 2.24 5.032-140.948 62.743-2.242-5.033c-12.785-28.732-.194-62.467 28.989-75.48l36.444-16.234c29.604-13.095 62.841.503 75.517 28.972zm-208.136-111.72c-46.742 0-84.77 38.028-84.77 84.77v335.23h-30v-335.23c0-63.284 51.486-114.77 114.77-114.77 45.49 0 86.725 26.901 105.051 68.533l8.704 19.776-27.405 12.208-8.761-19.898c-13.533-30.75-43.989-50.619-77.589-50.619zm250.952 170.4-168.776 75.131c-7.244 3.223-15.714-.027-18.938-7.271l-4.541-10.201c-2.249-5.05.019-10.958 5.071-13.207 12.921-5.752 172.89-76.962 176.708-78.662 5.039-2.242 10.964.032 13.208 5.071l4.541 10.2c3.215 7.226-.047 15.723-7.273 18.939z"/>
        </g>
    </symbol>

    <symbol id="wifi" enable-background="new 0 0 496.001 496.001" viewBox="0 0 496.001 496.001"
            xmlns="http://www.w3.org/2000/svg">
        <path
            d="m211.487 340.971c-20.18 20.179-20.184 52.845 0 73.027 32.261 32.263 88.153 9.639 88.153-36.514-.001-45.546-55.484-69.186-88.153-36.513zm36.514 56.152c-10.853 0-19.639-8.783-19.639-19.639 0-17.563 21.272-26.139 33.525-13.887 12.249 12.252 3.685 33.526-13.886 33.526zm241.878-188.65c-6.951 5.454-17.009 4.243-22.465-2.709-111.82-142.486-326.936-142.557-438.827 0-5.454 6.949-15.508 8.167-22.465 2.709-6.951-5.456-8.164-15.514-2.708-22.465 124.709-158.897 364.528-158.823 489.173 0 5.456 6.951 4.243 17.01-2.708 22.465zm-63.599 23.936c5.585 6.848 4.563 16.926-2.285 22.512-6.847 5.586-16.926 4.563-22.512-2.285-79.747-97.763-229.174-96.993-307.991 1.27-5.524 6.888-15.592 8.004-22.492 2.471-6.894-5.529-8-15.6-2.471-22.492 91.84-114.503 265.118-115.025 357.751-1.476zm-76.244 43.041c6.248 6.248 6.248 16.379 0 22.627-6.246 6.247-16.377 6.25-22.627 0-43.886-43.887-114.922-43.893-158.814 0-6.249 6.248-16.379 6.248-22.627 0-6.249-6.248-6.249-16.379 0-22.627 56.389-56.392 147.668-56.4 204.068 0z"/>
    </symbol>

    <symbol id="conditioner" xmlns="http://www.w3.org/2000/svg" viewBox="0 0 508.1 508.1"
            style="enable-background:new 0 0 508.1 508.1;" xml:space="preserve">
        <g>
            <g>
                <path d="M467.2,78.485H40.8c-22.5,0-40.8,18.3-40.8,40.8v160.5c0,22.5,18.3,40.8,40.8,40.8h426.5c22.5,0,40.8-18.3,40.8-40.8
                    v-160.5C508,96.785,489.7,78.485,467.2,78.485z M479.8,279.785c0,6.9-5.6,12.5-12.5,12.5H40.8c-6.9,0-12.5-5.6-12.5-12.5v-160.5
                    c0-6.9,5.6-12.5,12.5-12.5h426.5c6.9,0,12.5,5.6,12.5,12.5V279.785z"/>
            </g>
        </g>
        <g>
            <g>
                <path d="M439.3,238.285H68.7c-7.8,0-14.1,6.3-14.1,14.1c0,7.8,6.3,14.1,14.1,14.1h370.7c7.8,0,14.1-6.3,14.1-14.1
                    C453.5,244.585,447.1,238.285,439.3,238.285z"/>
            </g>
        </g>
        <g>
            <g>
                <path d="M440.6,131.085c-7.8,0-14.1,6.3-14.1,14.1v4.7c0,7.8,6.3,14.1,14.1,14.1c7.8,0,14.1-6.3,14.1-14.1v-4.7
                    C454.7,137.385,448.4,131.085,440.6,131.085z"/>
            </g>
        </g>
        <g>
            <g>
                <path d="M440.6,184.485c-7.8,0-14.1,6.3-14.1,14.1v4.7c0,7.8,6.3,14.1,14.1,14.1c7.8,0,14.1-6.3,14.1-14.1v-4.7
                    C454.7,190.885,448.4,184.485,440.6,184.485z"/>
            </g>
        </g>
        <g>
            <g>
                <path d="M104.9,342.185c-7.6-1.9-15.2,2.7-17.1,10.3l-10.5,41.8c-1.9,7.6,2.7,15.3,10.3,17.1c8.7,2,15.5-3.9,17.1-10.3l10.5-41.8
                    C117.1,351.785,112.5,344.085,104.9,342.185z"/>
            </g>
        </g>
        <g>
            <g>
                <path d="M204.3,358.485c-7.8-0.7-14.6,5.1-15.2,12.9l-3.5,43c-0.6,7.8,5.1,14.8,12.9,15.2c8.1,0.5,14.6-5.5,15.2-12.9l3.5-43
                    C217.9,365.985,212.1,359.185,204.3,358.485z"/>
            </g>
        </g>
        <g>
            <g>
                <path d="M430.7,394.285l-10.5-41.8c-1.9-7.6-9.6-12.1-17.1-10.3c-7.6,1.9-12.2,9.6-10.3,17.1l10.5,41.8
                    c1.6,6.4,8.5,12.3,17.1,10.3C428,409.585,432.6,401.785,430.7,394.285z"/>
            </g>
        </g>
        <g>
            <g>
                <path d="M322.4,414.385l-3.5-43c-0.7-7.7-7.4-13.6-15.2-12.9c-7.8,0.6-13.6,7.4-12.9,15.2l3.5,43c0.6,7.4,7.2,13.4,15.2,12.9
                    C317.3,429.085,323,422.185,322.4,414.385z"/>
            </g>
        </g>
    </symbol>


    <symbol id="washer" xmlns="http://www.w3.org/2000/svg"
            viewBox="0 0 512 512" style="enable-background:new 0 0 512 512;" xml:space="preserve">
        <g>
            <g>
                <path d="M465.702,0H46.298c-4.512,0-8.17,3.657-8.17,8.17v495.66c0,4.513,3.658,8.17,8.17,8.17h419.404
                    c4.512,0,8.17-3.657,8.17-8.17V8.17C473.872,3.657,470.214,0,465.702,0z M54.468,16.34h114.383v81.702H54.468V16.34z
                     M457.532,430.298h-68.085c-4.512,0-8.17,3.657-8.17,8.17v32.681c0,4.513,3.658,8.17,8.17,8.17c4.512,0,8.17-3.657,8.17-8.17
                    v-24.511h59.915v49.021H54.468V114.383h403.064V430.298z M457.532,98.043h-272.34V16.34h272.34V98.043z"/>
            </g>
        </g>
        <g>
            <g>
                <path d="M390.032,226.595c-0.107-0.387-0.237-0.764-0.398-1.125c-19.39-55.122-71.968-94.746-133.634-94.746
                    c-78.088,0-141.617,63.528-141.617,141.617S177.912,413.957,256,413.957c61.668,0,114.246-39.624,133.635-94.747
                    c0.159-0.361,0.29-0.736,0.397-1.124c4.914-14.357,7.585-29.745,7.585-45.746C397.617,256.34,394.946,240.952,390.032,226.595z
                     M256,397.617c-69.077,0-125.277-56.199-125.277-125.277c0-69.078,56.199-125.277,125.277-125.277
                    c50.637,0,94.35,30.199,114.082,73.532h-30.828c-17.847-28.673-49.305-46.298-83.254-46.298
                    c-54.061,0-98.043,43.982-98.043,98.043s43.982,98.043,98.043,98.043c33.951,0,65.407-17.626,83.254-46.298h30.828
                    C350.35,367.418,306.637,397.617,256,397.617z M326.432,230.937v82.807c-14.673,24.912-41.469,40.299-70.432,40.299
                    c-45.051,0-81.702-36.652-81.702-81.702c0-45.051,36.652-81.702,81.702-81.702C284.963,190.638,311.759,206.025,326.432,230.937z
                     M376.174,307.745h-33.402v-70.809h33.402c3.315,11.232,5.103,23.113,5.103,35.404
                    C381.277,284.632,379.489,296.512,376.174,307.745z"/>
            </g>
        </g>
        <g>
            <g>
                <path d="M340.426,32.681c-13.516,0-24.511,10.996-24.511,24.511c0,13.515,10.995,24.511,24.511,24.511
                    s24.511-10.996,24.511-24.511C364.936,43.677,353.941,32.681,340.426,32.681z M340.426,65.362c-4.506,0-8.17-3.665-8.17-8.17
                    c0-4.506,3.665-8.17,8.17-8.17c4.506,0,8.17,3.665,8.17,8.17C348.596,61.697,344.931,65.362,340.426,65.362z"/>
            </g>
        </g>
        <g>
            <g>
                <path d="M405.787,32.681c-13.516,0-24.511,10.996-24.511,24.511c0,13.515,10.995,24.511,24.511,24.511
                    s24.511-10.996,24.511-24.511C430.298,43.677,419.303,32.681,405.787,32.681z M405.787,65.362c-4.506,0-8.17-3.665-8.17-8.17
                    c0-4.506,3.665-8.17,8.17-8.17c4.506,0,8.17,3.665,8.17,8.17C413.957,61.697,410.293,65.362,405.787,65.362z"/>
            </g>
        </g>
        <g>
            <g>
                <path d="M144.34,32.681H78.979c-4.512,0-8.17,3.657-8.17,8.17s3.658,8.17,8.17,8.17h65.362c4.512,0,8.17-3.657,8.17-8.17
                    S148.853,32.681,144.34,32.681z"/>
            </g>
        </g>
    </symbol>

    <symbol id="pet" xmlns="http://www.w3.org/2000/svg" viewBox="0 0 511.563 511.563"
            style="enable-background:new 0 0 511.563 511.563;" xml:space="preserve">
        <g>
            <path
                d="M382.227,68.141c-1.236-3.954-5.444-6.158-9.395-4.921c-3.954,1.235-6.157,5.442-4.921,9.395   c0.116,0.373,10.823,35.551-5.632,58.382c-8.923-3.894-28.739-15.44-33.672-42.573c-0.74-4.075-4.641-6.783-8.721-6.037   c-4.075,0.741-6.778,4.646-6.037,8.721c8.058,44.321,47.187,55.55,48.848,56.006c0.657,0.18,1.324,0.268,1.986,0.268   c2.06,0,4.064-0.85,5.503-2.404c11.178-12.072,16.776-29.287,16.189-49.784C385.947,80.194,382.379,68.625,382.227,68.141z"/>
            <path
                d="M407.252,61.95c-5.931,0-10.755,4.824-10.755,10.754c0,5.931,4.824,10.755,10.755,10.755   c5.93,0,10.754-4.824,10.754-10.755C418.006,66.774,413.181,61.95,407.252,61.95z"/>
            <path
                d="M58.494,213.068c-7.534,15.023-10.944,31.69-9.892,48.595c0.06,0.963,0.13,1.935,0.21,2.912   c0.911,11.156-1.57,24.392-7.377,39.338c-1.5,3.861,0.414,8.207,4.275,9.707c0.893,0.347,1.811,0.511,2.714,0.511   c3.004,0,5.84-1.817,6.993-4.786c6.635-17.08,9.442-32.554,8.344-45.994c-0.072-0.878-0.135-1.751-0.188-2.617   c-1.002-16.096,2.795-31.935,10.98-45.805c1.935-3.277,1.107-7.484-1.925-9.785c-25.152-19.092-38.866-43.502-45.942-60.617   C5.2,92.557,31.016,30.891,36.41,19.057c0.143-0.314,0.24-0.53,0.29-0.648c1.234-2.856,4.563-4.182,7.421-2.943   c2.854,1.232,4.176,4.558,2.936,7.439c-0.062,0.145-6.188,14.675-9.791,35.354c-0.711,4.081,2.021,7.965,6.102,8.676   c4.076,0.711,7.965-2.021,8.676-6.102c3.275-18.801,8.763-31.928,8.803-32.024c4.495-10.443-0.34-22.606-10.778-27.114   C39.617-2.819,27.442,2.014,22.935,12.45l-0.175,0.386C18.894,21.318,11.732,38.878,7.2,61.177   c-6.824,33.576-4.932,63.547,5.625,89.08C23.119,175.157,38.837,196.746,58.494,213.068z"/>
            <path
                d="M508.003,95.793c0.24-2.478,0.369-4.97,0.369-7.459c0-3.027-1.82-5.759-4.615-6.923l-14.02-5.842   c-0.002-0.001-0.004-0.001-0.007-0.002l-45.092-18.788L426.77,33.135C411.089,12.387,386.2,0,360.191,0   c-26.491,0-50.229,15.786-60.475,40.217l-40.348,96.215L128.658,2.951c-2.898-2.962-7.647-3.01-10.605-0.111   c-2.96,2.898-3.01,7.647-0.111,10.606l135.132,137.996l-3.364,8.021H145.501c-17.66,0-34.792,4.724-49.846,13.702   c-18.063-11.395-30.929-26.104-38.273-43.777c-4.941-11.895-7.542-25.393-7.73-40.117c-0.052-4.109-3.399-7.404-7.497-7.404   c-0.032,0-0.066,0-0.098,0.001c-4.142,0.053-7.457,3.453-7.403,7.595c0.213,16.645,3.199,32.014,8.877,45.681   c9.142,22.001,25.436,39.94,48.43,53.319c2.471,1.438,5.545,1.346,7.926-0.238c13.532-9.002,29.305-13.761,45.614-13.761h107.861   l141.542,52.059v38.953c0,31.196-25.38,56.576-56.576,56.576c-4.142,0-7.5,3.358-7.5,7.5v139.437c0,4.142,3.358,7.5,7.5,7.5   c12.51,0,21.518,4.486,26.772,13.335c1.366,2.299,2.328,4.635,3.006,6.74H315.12c-13.103,0-23.762-10.659-23.762-23.762v-145.64   c0-4.143-3.357-7.5-7.5-7.5H160.635c-2.646,0-5.098,1.396-6.449,3.671c-26.099,43.956-90.605,64.814-91.25,65.018   c-3.12,0.985-5.242,3.88-5.242,7.152v73.484c0,4.142,3.358,7.5,7.5,7.5c12.511,0,21.519,4.486,26.773,13.335   c1.366,2.299,2.328,4.635,3.006,6.74H41.988c-13.103,0-23.762-10.659-23.762-23.762v-79.474c0-14.169,4.434-27.814,12.822-39.463   c3.711-5.153,7.305-10.69,10.682-16.458c2.094-3.574,0.892-8.169-2.682-10.262c-3.572-2.095-8.169-0.893-10.262,2.682   c-3.141,5.362-6.475,10.501-9.91,15.272c-10.238,14.217-15.65,30.893-15.65,48.228v79.474c0,21.373,17.389,38.762,38.762,38.762   h62.064c4.185,0,7.644-3.584,7.495-7.767c-0.014-0.398-1.79-37.451-38.854-41.878v-61.076c6.783-2.481,19.335-7.517,33.527-15.336   v73.359c0,21.374,17.389,38.763,38.762,38.763h62.065c4.187,0,7.644-3.584,7.495-7.768c-0.014-0.397-1.791-37.45-38.854-41.877   v-61.08c14.319-5.245,54.428-21.896,81.403-52.242h19.265v138.14c0,21.373,17.389,38.762,38.762,38.762h62.065   c4.185,0,7.644-3.584,7.495-7.767c-0.003-0.1-0.12-2.527-0.882-6.168h38.793c4.186,0,7.644-3.585,7.495-7.768   c-0.014-0.397-1.79-37.45-38.853-41.877v-50.95c0-4.143-3.357-7.5-7.5-7.5s-7.5,3.357-7.5,7.5v58.02c0,4.143,3.357,7.5,7.5,7.5   c20.038,0,27.28,11.771,29.896,20.075h-35.427c-5.306-9.315-14.93-18.626-32.374-20.71V336.661   c11.078-1.159,21.408-4.862,30.405-10.502v40.874c0,4.142,3.357,7.5,7.5,7.5s7.5-3.358,7.5-7.5v-53.402   c11.592-12.724,18.671-29.628,18.671-48.157V157.561h28.351c20.713,0,40.171-8.663,53.385-23.769   c9.438-10.79,14.905-23.464,16.339-37.748C507.986,95.961,507.995,95.877,508.003,95.793z M165.932,374.415   c-3.121,0.985-5.242,3.88-5.242,7.152v73.485c0,4.143,3.357,7.5,7.5,7.5c20.037,0,27.28,11.771,29.896,20.075h-53.103   c-13.102,0-23.762-10.66-23.762-23.763v-82.392c15.969-10.507,32.207-24.336,43.579-41.812h71.141   C206.198,361.421,166.384,374.272,165.932,374.415z M264.646,162.631l7.434-17.728l122.823,46.158v19.479L264.646,162.631z    M480.348,123.917c-10.365,11.849-25.708,18.645-42.095,18.645h-35.851c-4.143,0-7.5,3.357-7.5,7.5v24.975L277.885,131.06   l35.663-85.043C321.451,27.175,339.759,15,360.191,15c21.334,0,41.75,10.16,54.612,27.18l19.094,25.264   c0.802,1.061,1.871,1.889,3.099,2.4l43.261,18.026c1.725,6.633,5.488,12.602,10.732,17.016   C488.859,111.876,485.311,118.243,480.348,123.917z"/>
        </g>
    </symbol>

    <symbol id="paw" viewBox="0 0 512 512" xmlns="http://www.w3.org/2000/svg">
        <path
            d="m378.608 290.994c-34.448-41.592-77.99-64.498-122.608-64.498s-88.161 22.906-122.607 64.498c-30.964 37.385-49.448 84.501-49.448 126.035 0 20.176 6.168 35.544 18.332 45.679 12.006 10.004 27.857 13.388 45.541 13.387 18.817 0 39.711-3.832 60.24-7.598 17.939-3.291 34.883-6.399 47.943-6.399 11.272 0 27.165 2.95 43.988 6.073 39.317 7.3 83.881 15.572 109.624-5.832 12.238-10.175 18.443-25.42 18.443-45.31.001-41.534-18.484-88.65-49.448-126.035zm11.825 148.277c-14.923 12.409-53.762 5.198-84.97-.595-18.221-3.383-35.431-6.578-49.464-6.578-15.789 0-34.036 3.348-53.356 6.892-29.931 5.49-67.181 12.324-81.165.671-1.864-1.553-7.536-6.279-7.536-22.633 0-34.246 16.306-75.208 42.553-106.899 28.645-34.586 63.983-53.634 99.503-53.634s70.858 19.048 99.503 53.634c26.248 31.691 42.553 72.653 42.553 106.899.003 15.905-5.735 20.676-7.621 22.243z"/>
        <path
            d="m382.13 65.146c-12.604-18.583-30.652-29.239-49.517-29.239-18.866 0-36.913 10.658-49.517 29.239-11.578 17.071-17.955 39.489-17.955 63.125s6.376 46.054 17.955 63.125c12.604 18.582 30.652 29.24 49.517 29.24 18.866 0 36.913-10.658 49.517-29.24 11.578-17.071 17.955-39.489 17.955-63.125s-6.376-46.055-17.955-63.125zm-24.827 109.411c-4.073 6.005-12.697 16.08-24.69 16.08s-20.616-10.074-24.69-16.08c-8.124-11.978-12.783-28.849-12.783-46.286 0-17.438 4.66-34.308 12.783-46.286 4.073-6.005 12.697-16.08 24.69-16.08s20.617 10.074 24.69 16.08c8.124 11.978 12.783 28.849 12.783 46.286-.001 17.437-4.659 34.308-12.783 46.286z"/>
        <path
            d="m228.905 65.145c-12.604-18.583-30.651-29.24-49.517-29.24s-36.914 10.658-49.517 29.24c-11.578 17.071-17.955 39.489-17.955 63.125s6.376 46.054 17.955 63.125c12.604 18.583 30.651 29.241 49.517 29.241s36.913-10.658 49.517-29.241c11.578-17.071 17.955-39.488 17.955-63.125-.001-23.636-6.377-46.055-17.955-63.125zm-24.829 109.412c-4.073 6.005-12.697 16.08-24.689 16.08-11.993 0-20.617-10.075-24.69-16.08-8.124-11.978-12.783-28.849-12.783-46.286 0-17.438 4.66-34.308 12.783-46.286 4.073-6.005 12.697-16.08 24.69-16.08s20.616 10.074 24.689 16.08c8.124 11.978 12.783 28.849 12.783 46.286s-4.659 34.308-12.783 46.286z"/>
        <path
            d="m509.019 210.133c-5.081-17.284-15.972-29.843-30.665-35.362-11.824-4.441-25.171-3.688-37.583 2.121-17.105 8.004-31.086 24.532-38.356 45.345-5.941 17.008-6.682 34.985-2.085 50.622 5.081 17.284 15.972 29.843 30.666 35.362 5.085 1.91 10.45 2.859 15.902 2.859 7.227 0 14.607-1.669 21.682-4.98 17.105-8.004 31.086-24.532 38.356-45.344v-.001c5.94-17.007 6.681-34.985 2.083-50.622zm-30.405 40.729c-4.556 13.041-13.061 23.533-22.75 28.067-3.563 1.666-8.938 3.229-14.32 1.208-12.988-4.879-18.04-27.313-10.81-48.007 4.556-13.041 13.061-23.533 22.751-28.068 2.362-1.105 5.52-2.164 8.948-2.164 1.744 0 3.558.274 5.371.955 12.988 4.88 18.04 27.314 10.81 48.009z"/>
        <path
            d="m109.587 222.235c-7.271-20.813-21.252-37.34-38.356-45.344-12.413-5.809-25.761-6.561-37.584-2.121-14.694 5.52-25.585 18.079-30.666 35.362-4.597 15.637-3.856 33.615 2.085 50.622v.001c7.272 20.813 21.252 37.34 38.356 45.344 7.076 3.311 14.455 4.98 21.682 4.98 5.452 0 10.818-.95 15.902-2.859 14.696-5.52 25.586-18.079 30.667-35.362 4.595-15.636 3.854-33.614-2.086-50.623zm-39.131 57.902c-5.381 2.021-10.757.458-14.319-1.208-9.689-4.534-18.195-15.026-22.75-28.067v.001c-7.229-20.695-2.178-43.128 10.81-48.008 5.38-2.021 10.757-.458 14.32 1.208 9.69 4.535 18.195 15.027 22.75 28.067 7.229 20.695 2.177 43.128-10.811 48.007z"/>
    </symbol>


    <symbol id="balcony" xmlns="http://www.w3.org/2000/svg" viewBox="0 0 512 512"
            style="enable-background:new 0 0 512 512;" xml:space="preserve">
        <g>
            <g>
                <path d="M256,0c-83.816,0-152,68.184-152,152c0,4.424,3.576,8,8,8s8-3.576,8-8c0-74.992,61.008-136,136-136s136,61.008,136,136
                    c0,4.424,3.576,8,8,8s8-3.576,8-8C408,68.184,339.816,0,256,0z"/>
            </g>
        </g>
        <g>
            <g>
                <path d="M456,304H56c-4.424,0-8,3.576-8,8s3.576,8,8,8h400c4.424,0,8-3.576,8-8S460.424,304,456,304z"/>
            </g>
        </g>
        <g>
            <g>
                <path d="M456,472H56c-4.424,0-8,3.576-8,8s3.576,8,8,8h400c4.424,0,8-3.576,8-8S460.424,472,456,472z"/>
            </g>
        </g>
        <g>
            <g>
                <path
                    d="M88,304c-4.424,0-8,3.576-8,8v168c0,4.424,3.576,8,8,8s8-3.576,8-8V312C96,307.576,92.424,304,88,304z"/>
            </g>
        </g>
        <g>
            <g>
                <path
                    d="M136,304c-4.424,0-8,3.576-8,8v168c0,4.424,3.576,8,8,8s8-3.576,8-8V312C144,307.576,140.424,304,136,304z"/>
            </g>
        </g>
        <g>
            <g>
                <path
                    d="M184,304c-4.424,0-8,3.576-8,8v168c0,4.424,3.576,8,8,8s8-3.576,8-8V312C192,307.576,188.424,304,184,304z"/>
            </g>
        </g>
        <g>
            <g>
                <path
                    d="M232,304c-4.424,0-8,3.576-8,8v168c0,4.424,3.576,8,8,8s8-3.576,8-8V312C240,307.576,236.424,304,232,304z"/>
            </g>
        </g>
        <g>
            <g>
                <path
                    d="M280,304c-4.424,0-8,3.576-8,8v168c0,4.424,3.576,8,8,8s8-3.576,8-8V312C288,307.576,284.424,304,280,304z"/>
            </g>
        </g>
        <g>
            <g>
                <path
                    d="M328,304c-4.424,0-8,3.576-8,8v168c0,4.424,3.576,8,8,8s8-3.576,8-8V312C336,307.576,332.424,304,328,304z"/>
            </g>
        </g>
        <g>
            <g>
                <path
                    d="M376,304c-4.424,0-8,3.576-8,8v168c0,4.424,3.576,8,8,8s8-3.576,8-8V312C384,307.576,380.424,304,376,304z"/>
            </g>
        </g>
        <g>
            <g>
                <path
                    d="M424,304c-4.424,0-8,3.576-8,8v168c0,4.424,3.576,8,8,8s8-3.576,8-8V312C432,307.576,428.424,304,424,304z"/>
            </g>
        </g>
        <g>
            <g>
                <path d="M104,496c-4.416,0-8-3.584-8-8c0-4.424-3.576-8-8-8s-8,3.576-8,8c0,13.232,10.768,24,24,24c4.424,0,8-3.576,8-8
                    S108.424,496,104,496z"/>
            </g>
        </g>
        <g>
            <g>
                <path
                    d="M88,472c-4.424,0-8,3.576-8,8v8c0,4.424,3.576,8,8,8s8-3.576,8-8v-8C96,475.576,92.424,472,88,472z"/>
            </g>
        </g>
        <g>
            <g>
                <path d="M424,480c-4.424,0-8,3.576-8,8c0,4.416-3.584,8-8,8c-4.424,0-8,3.576-8,8s3.576,8,8,8c13.232,0,24-10.768,24-24
                    C432,483.576,428.424,480,424,480z"/>
            </g>
        </g>
        <g>
            <g>
                <path
                    d="M424,472c-4.424,0-8,3.576-8,8v8c0,4.424,3.576,8,8,8s8-3.576,8-8v-8C432,475.576,428.424,472,424,472z"/>
            </g>
        </g>
        <g>
            <g>
                <path d="M408,496H104c-4.424,0-8,3.576-8,8s3.576,8,8,8h304c4.424,0,8-3.576,8-8S412.424,496,408,496z"/>
            </g>
        </g>
        <g>
            <g>
                <path
                    d="M112,144c-4.424,0-8,3.576-8,8v160c0,4.424,3.576,8,8,8s8-3.576,8-8V152C120,147.576,116.424,144,112,144z"/>
            </g>
        </g>
        <g>
            <g>
                <path
                    d="M400,144c-4.424,0-8,3.576-8,8v160c0,4.424,3.576,8,8,8s8-3.576,8-8V152C408,147.576,404.424,144,400,144z"/>
            </g>
        </g>
        <g>
            <g>
                <path d="M256,0c-4.424,0-8,3.576-8,8v104c0,4.424,3.576,8,8,8s8-3.576,8-8V8C264,3.576,260.424,0,256,0z"/>
            </g>
        </g>
        <g>
            <g>
                <path d="M256,104c-4.424,0-8,3.576-8,8c0,74.992-61.008,136-136,136c-4.424,0-8,3.576-8,8s3.576,8,8,8
                    c83.816,0,152-68.184,152-152C264,107.576,260.424,104,256,104z"/>
            </g>
        </g>
        <g>
            <g>
                <path d="M400,248c-74.992,0-136-61.008-136-136c0-4.424-3.576-8-8-8s-8,3.576-8,8c0,83.816,68.184,152,152,152
                    c4.424,0,8-3.576,8-8S404.424,248,400,248z"/>
            </g>
        </g>
        <g>
            <g>
                <path d="M352,239.808c-4.424,0-8,3.576-8,8V312c0,4.424,3.576,8,8,8s8-3.576,8-8v-64.192C360,243.384,356.424,239.808,352,239.808
                    z"/>
            </g>
        </g>
        <g>
            <g>
                <path d="M160,239.808c-4.424,0-8,3.576-8,8V312c0,4.424,3.576,8,8,8s8-3.576,8-8v-64.192C168,243.384,164.424,239.808,160,239.808
                    z"/>
            </g>
        </g>
        <g>
            <g>
                <path d="M56,240c-13.232,0-24,10.768-24,24s10.768,24,24,24s24-10.768,24-24S69.232,240,56,240z M56,272c-4.416,0-8-3.584-8-8
                    c0-4.416,3.584-8,8-8s8,3.584,8,8C64,268.416,60.416,272,56,272z"/>
            </g>
        </g>
        <g>
            <g>
                <path d="M456,240c-13.232,0-24,10.768-24,24s10.768,24,24,24s24-10.768,24-24S469.232,240,456,240z M456,272c-4.416,0-8-3.584-8-8
                    c0-4.416,3.584-8,8-8c4.416,0,8,3.584,8,8C464,268.416,460.416,272,456,272z"/>
            </g>
        </g>
        <g>
            <g>
                <path
                    d="M56,272c-4.424,0-8,3.576-8,8v200c0,4.424,3.576,8,8,8s8-3.576,8-8V280C64,275.576,60.424,272,56,272z"/>
            </g>
        </g>
        <g>
            <g>
                <path
                    d="M456,272c-4.424,0-8,3.576-8,8v200c0,4.424,3.576,8,8,8s8-3.576,8-8V280C464,275.576,460.424,272,456,272z"/>
            </g>
        </g>
    </symbol>


    <symbol id="loggia" viewBox="0 0 850 382" xmlns="http://www.w3.org/2000/svg">
        <g>
            <g transform="translate(0.000000, 1.000000)">
                <path
                    d="M240.464953,67.770384 C239.441589,66.7502447 143.245327,-27.6126357 25.046729,67.2603144 C24.0233645,68.2804536 23,69.8106625 23,71.3408714 L23,352.899304 C23,355.959722 25.046729,358 28.1168224,358 L236.883178,358 C239.953271,358 242,355.959722 242,352.899304 L242,71.3408714 C242,69.8106625 241.488318,68.7905232 240.464953,67.770384 Z M127.383178,347.798608 L33.2336449,347.798608 L33.2336449,254.965936 L127.383178,254.965936 L127.383178,347.798608 Z M127.383178,244.764543 L33.2336449,244.764543 L33.2336449,149.381524 L127.383178,149.381524 L127.383178,244.764543 Z M127.383178,139.180131 L33.2336449,139.180131 L33.2336449,73.8912195 C67.5163551,46.8575294 99.7523364,36.6561369 127.383178,35.1259281 L127.383178,139.180131 Z M231.766355,347.798608 L137.616822,347.798608 L137.616822,254.965936 L231.766355,254.965936 L231.766355,347.798608 Z M231.766355,244.764543 L137.616822,244.764543 L137.616822,149.381524 L231.766355,149.381524 L231.766355,244.764543 Z M231.766355,139.180131 L137.616822,139.180131 L137.616822,35.1259281 C188.273364,36.6561369 224.091121,66.7502447 231.766355,73.8912195 L231.766355,139.180131 Z"
                    id="Shape"></path>
                <path
                    d="M264.462428,51.8637876 C263.43738,50.8431462 145.55684,-63.9790121 2.05009634,51.3534669 C1.02504817,52.3741083 0,53.9050705 0,55.4360326 L0,374.896793 C0,377.958717 2.05009634,380 5.12524085,380 L260.874759,380 C263.949904,380 266,377.958717 266,374.896793 L266,55.4360326 C266,53.9050705 265.487476,52.884429 264.462428,51.8637876 Z M255.749518,369.793586 L10.2504817,369.793586 L10.2504817,57.9876361 C138.894027,-43.5661839 241.398844,44.7192978 255.749518,57.9876361 L255.749518,369.793586 Z"
                    id="Shape"></path>
            </g>
            <g transform="translate(291.000000, 0.000000)">
                <path
                    d="M241.401,67.394 C240.377,66.37 144.121,-28.35 25.849,66.882 C24.825,67.906 23.801,69.442 23.801,70.978 L23.801,353.602 C23.801,356.674 25.849,358.722 28.921,358.722 L237.817,358.722 C240.889,358.722 242.937,356.674 242.937,353.602 L242.937,70.978 C242.937,69.442 242.425,68.418 241.401,67.394 Z M128.249,348.482 L34.041,348.482 L34.041,255.298 L128.249,255.298 L128.249,348.482 Z M128.249,245.058 L34.041,245.058 L34.041,149.314 L128.249,149.314 L128.249,245.058 Z M128.249,139.074 L34.041,139.074 L34.041,73.538 C68.345,46.402 100.601,36.162 128.249,34.626 L128.249,139.074 Z M232.697,348.482 L138.489,348.482 L138.489,255.298 L232.697,255.298 L232.697,348.482 Z M232.697,245.058 L138.489,245.058 L138.489,149.314 L232.697,149.314 L232.697,245.058 Z M232.697,139.074 L138.489,139.074 L138.489,34.626 C189.177,36.162 225.017,66.37 232.697,73.538 L232.697,139.074 Z"
                    id="Shape"></path>
                <path
                    d="M264.953,52.034 C263.929,51.01 146.169,-64.19 2.809,51.522 C1.785,52.546 0.761,54.082 0.761,55.618 L0.761,376.13 C0.761,379.202 2.809,381.25 5.881,381.25 L261.369,381.25 C264.441,381.25 266.489,379.202 266.489,376.13 L266.489,55.618 C266.489,54.082 265.977,53.058 264.953,52.034 Z M256.249,371.01 L11.001,371.01 L11.001,58.178 C139.513,-43.71 241.913,44.866 256.249,58.178 L256.249,371.01 Z"
                    id="Shape"></path>
            </g>
            <g transform="translate(583.000000, 0.000000)">
                <path
                    d="M241.401,67.394 C240.377,66.37 144.121,-28.35 25.849,66.882 C24.825,67.906 23.801,69.442 23.801,70.978 L23.801,353.602 C23.801,356.674 25.849,358.722 28.921,358.722 L237.817,358.722 C240.889,358.722 242.937,356.674 242.937,353.602 L242.937,70.978 C242.937,69.442 242.425,68.418 241.401,67.394 Z M128.249,348.482 L34.041,348.482 L34.041,255.298 L128.249,255.298 L128.249,348.482 Z M128.249,245.058 L34.041,245.058 L34.041,149.314 L128.249,149.314 L128.249,245.058 Z M128.249,139.074 L34.041,139.074 L34.041,73.538 C68.345,46.402 100.601,36.162 128.249,34.626 L128.249,139.074 Z M232.697,348.482 L138.489,348.482 L138.489,255.298 L232.697,255.298 L232.697,348.482 Z M232.697,245.058 L138.489,245.058 L138.489,149.314 L232.697,149.314 L232.697,245.058 Z M232.697,139.074 L138.489,139.074 L138.489,34.626 C189.177,36.162 225.017,66.37 232.697,73.538 L232.697,139.074 Z"
                    id="Shape"></path>
                <path
                    d="M264.953,52.034 C263.929,51.01 146.169,-64.19 2.809,51.522 C1.785,52.546 0.761,54.082 0.761,55.618 L0.761,376.13 C0.761,379.202 2.809,381.25 5.881,381.25 L261.369,381.25 C264.441,381.25 266.489,379.202 266.489,376.13 L266.489,55.618 C266.489,54.082 265.977,53.058 264.953,52.034 Z M256.249,371.01 L11.001,371.01 L11.001,58.178 C139.513,-43.71 241.913,44.866 256.249,58.178 L256.249,371.01 Z"
                    id="Shape"></path>
            </g>
        </g>
    </symbol>

    <symbol id="veranda" viewBox="0 0 605 548" xmlns="http://www.w3.org/2000/svg">
        <g>
            <path
                d="m472.667 258.667c-5.896 0-10.667 4.771-10.667 10.667v138.666h-96c-5.896 0-10.667 4.771-10.667 10.667v106.667c0 5.896 4.771 10.667 10.667 10.667s10.667-4.771 10.667-10.667v-96h85.333v96c0 5.896 4.771 10.667 10.667 10.667s10.667-4.771 10.667-10.667v-256c0-5.896-4.771-10.667-10.667-10.667z"/>
            <path
                d="m174 408h-96v-138.667c0-5.896-4.771-10.667-10.667-10.667s-10.667 4.771-10.667 10.667v256c0 5.896 4.771 10.667 10.667 10.667s10.667-4.771 10.667-10.667v-96h85.333v96c0 5.896 4.771 10.667 10.667 10.667s10.667-4.771 10.667-10.667v-106.666c0-5.896-4.771-10.667-10.667-10.667z"/>
            <path
                d="m388 323c17.120827 0 31 13.879173 31 31s-13.879173 31-31 31h-106v131h21c5.522847 0 10 4.477153 10 10s-4.477153 10-10 10h-66c-5.522847 0-10-4.477153-10-10s4.477153-10 10-10h20v-131h-105c-17.120827 0-31-13.879173-31-31s13.879173-31 31-31zm-.667 21h-234.666c-5.875 0-10.667 4.782-10.667 10.667 0 5.886 4.792 10.667 10.667 10.667h234.666c5.875 0 10.667-4.782 10.667-10.667 0-5.886-4.792-10.667-10.667-10.667z"/>
            <rect height="22" rx="11" width="605" y="528"/>
            <rect height="425" rx="11" width="24" x="531" y="120"/>
        </g>
        <g transform="translate(0 8)">
            <path
                d="m5.64369396 1c8.71061254-2.43463027 584.85470304 79.6962713 587.65772104 80.614121 2.803019.9178497 8.44688 6.2121891 6.169793 20.497578-2.277087 14.28539-4.175687 19.173468-14.739222 22.657628s-570.746231-33.5965405-579.08829204-37.3037638c-4.26928594-1.8972765-5.32621192-18.8157296-5.47114867-35.5672936-.14493676-16.7515641-1.35324869-48.99083951 5.47114867-50.8982696z"/>
            <path
                d="m13.0721203 31.4993694c8.3012985-1.390863 571.6891557 44.4008084 574.3604597 44.9251604s4.223947 4.1921155 2.053861 12.3531166-8.29216 8.541494-18.345559 9.0683703-545.7567194-5.182591-553.7067847-7.3004649c-4.0686711-1.0838819-6.42823-19.4461568-6.9405248-29.2213241-.51229478-9.7751673-3.92516927-28.7351757 2.5785478-29.8248583z"
                fill="#fff" transform="matrix(.99862953 .05233596 -.05233596 .99862953 3.795692 -15.603126)"/>
        </g>
    </symbol>


    <symbol id="kitchen" xmlns="http://www.w3.org/2000/svg" viewBox="0 0 128 128">
        <g>
            <path
                d="M23.437,4.75C13.133,4.75,4.75,15.769,4.75,29.313c0,10.675,5.2,20.038,12.8,23.324l-1.7,62.818a7.589,7.589,0,1,0,15.173,0l-1.7-62.817c7.6-3.286,12.8-12.649,12.8-23.324C42.125,15.769,33.742,4.75,23.437,4.75Zm3.546,45.038A1.75,1.75,0,0,0,25.791,51.5l1.735,64.054a4.09,4.09,0,1,1-8.177,0L21.084,51.5a1.75,1.75,0,0,0-1.192-1.707C13.037,47.49,8.25,39.07,8.25,29.313,8.25,17.7,15.063,8.25,23.437,8.25S38.625,17.7,38.625,29.313C38.625,39.07,33.838,47.49,26.983,49.788Z"/>
            <path
                d="M68.327,4.816a4.686,4.686,0,0,0-5.275,3.157C58.064,22.589,51.982,46.65,51.33,78.278a1.751,1.751,0,0,0,.909,1.571l6.943,3.806-2.029,31.528a7.581,7.581,0,1,0,15.146.486V9.505A4.68,4.68,0,0,0,68.327,4.816ZM68.8,115.669a4.086,4.086,0,0,1-4.081,4.081,4.081,4.081,0,0,1-4.072-4.343l2.1-32.638a1.749,1.749,0,0,0-.905-1.647l-6.987-3.831c.753-30.656,6.659-53.97,11.51-68.187a1.25,1.25,0,0,1,2.435.4Z"/>
            <path
                d="M121.5,4.75a1.749,1.749,0,0,0-1.75,1.75V35.19a15.159,15.159,0,0,1-11.5,14.732,1.749,1.749,0,0,0-1.325,1.746l1.73,63.88a4.093,4.093,0,1,1-8.182,0l1.73-63.88a1.749,1.749,0,0,0-1.325-1.746A15.16,15.16,0,0,1,89.37,35.19V6.5a1.75,1.75,0,0,0-3.5,0V35.19A18.653,18.653,0,0,0,98.664,52.923l-1.693,62.529a7.592,7.592,0,1,0,15.178,0l-1.693-62.529A18.653,18.653,0,0,0,123.25,35.19V6.5A1.749,1.749,0,0,0,121.5,4.75Z"/>
            <path
                d="M96.09,35.917a1.749,1.749,0,0,0,1.75-1.75V6.5a1.75,1.75,0,0,0-3.5,0V34.167A1.749,1.749,0,0,0,96.09,35.917Z"/>
            <path
                d="M104.559,35.917a1.75,1.75,0,0,0,1.75-1.75V6.5a1.75,1.75,0,0,0-3.5,0V34.167A1.749,1.749,0,0,0,104.559,35.917Z"/>
            <path
                d="M113.028,35.917a1.749,1.749,0,0,0,1.75-1.75V6.5a1.75,1.75,0,0,0-3.5,0V34.167A1.75,1.75,0,0,0,113.028,35.917Z"/>
        </g>
    </symbol>

    <symbol id="kitchen_2" viewBox="0 0 480 480" xmlns="http://www.w3.org/2000/svg">
        <g>
            <path
                d="M472,96 L328,96 C323.582031,96 320,99.582031 320,104 L320,288 L144,288 L144,264 C144,259.582031 140.417969,256 136,256 L112,256 L112,272 L128,272 L128,288 L96,288 L96,256 L80,256 L80,288 L48,288 L48,272 L64,272 L64,256 L40,256 C35.582031,256 32,259.582031 32,264 L32,288 L8,288 C3.582031,288 0,291.582031 0,296 L0,472 C0,476.417969 3.582031,480 8,480 L472,480 C476.417969,480 480,476.417969 480,472 L480,104 C480,99.582031 476.417969,96 472,96 Z M336,112 L464,112 L464,208 L336,208 L336,112 Z M320,336 L176,336 L176,304 L320,304 L320,336 Z M16,304 L160,304 L160,336 L16,336 L16,304 Z M16,352 L160,352 L160,464 L16,464 L16,352 Z M176,352 L240,352 L240,464 L176,464 L176,352 Z M256,352 L320,352 L320,464 L256,464 L256,352 Z M336,464 L336,224 L464,224 L464,464 L336,464 Z"
                id="Shape"></path>
            <polygon id="Path" points="352 144 368 144 368 176 352 176"></polygon>
            <polygon id="Path" points="352 256 368 256 368 288 352 288"></polygon>
            <path
                d="M48,320 C48,324.417969 44.417969,328 40,328 C35.582031,328 32,324.417969 32,320 C32,315.582031 35.582031,312 40,312 C44.417969,312 48,315.582031 48,320 Z"
                id="Path"></path>
            <path
                d="M80,320 C80,324.417969 76.417969,328 72,328 C67.582031,328 64,324.417969 64,320 C64,315.582031 67.582031,312 72,312 C76.417969,312 80,315.582031 80,320 Z"
                id="Path"></path>
            <path
                d="M112,320 C112,324.417969 108.417969,328 104,328 C99.582031,328 96,324.417969 96,320 C96,315.582031 99.582031,312 104,312 C108.417969,312 112,315.582031 112,320 Z"
                id="Path"></path>
            <path
                d="M144,320 C144,324.417969 140.417969,328 136,328 C131.582031,328 128,324.417969 128,320 C128,315.582031 131.582031,312 136,312 C140.417969,312 144,315.582031 144,320 Z"
                id="Path"></path>
            <path
                d="M8,152 L168,152 C172.417969,152 176,148.417969 176,144 L176,120 C176,117.878906 175.15625,115.84375 173.65625,114.34375 L141.65625,82.34375 C140.15625,80.84375 138.121094,80 136,80 L128,80 L128,8 C128,3.582031 124.417969,0 120,0 L56,0 C51.582031,0 48,3.582031 48,8 L48,80 L40,80 C37.878906,80 35.84375,80.84375 34.34375,82.34375 L2.34375,114.34375 C0.84375,115.84375 0,117.878906 0,120 L0,144 C0,148.417969 3.582031,152 8,152 Z M64,16 L112,16 L112,80 L64,80 L64,16 Z M16,123.3125 L43.3125,96 L132.6875,96 L160,123.3125 L160,136 L16,136 L16,123.3125 Z"
                id="Shape"></path>
            <path
                d="M136,368 L40,368 C35.582031,368 32,371.582031 32,376 L32,440 C32,444.417969 35.582031,448 40,448 L136,448 C140.417969,448 144,444.417969 144,440 L144,376 C144,371.582031 140.417969,368 136,368 Z M128,432 L48,432 L48,384 L128,384 L128,432 Z"
                id="Shape"></path>
            <polygon id="Path" points="232 312 264 312 264 328 232 328"></polygon>
            <polygon id="Path" points="208 392 224 392 224 424 208 424"></polygon>
            <polygon id="Path" points="272 392 288 392 288 424 272 424"></polygon>
        </g>
    </symbol>

    <symbol id="big_sofa" xmlns="http://www.w3.org/2000/svg" viewBox="0 60 512 380" xml:space="preserve">
		<path d="M481.908,192.036v-30.481c0-19.604-16.428-35.554-36.621-35.554h-87.363c-11.861,0-22.425,5.504-29.121,14.019
			c-6.697-8.515-17.26-14.019-29.121-14.019h-87.363c-11.861,0-22.424,5.504-29.121,14.019c-6.696-8.515-17.26-14.019-29.121-14.019
			H66.713c-20.193,0-36.621,15.949-36.621,35.554v30.481C13.005,195.036,0,209.573,0,227.013v116.888
			c0,6.714,5.542,12.176,12.354,12.176h45.889v17.748c0,6.714,5.542,12.176,12.354,12.176h48.535
			c6.812,0,12.354-5.462,12.354-12.176v-17.748h247.09v17.748c0,6.714,5.542,12.176,12.354,12.176h48.535
			c6.812,0,12.354-5.462,12.354-12.176v-17.748h1.722h46.108c6.812,0,12.354-5.462,12.354-12.176V227.013
			C512,209.573,498.995,195.036,481.908,192.036z M58.242,341.077H15V227.013c0-11.333,9.699-20.554,21.621-20.554
			c11.922,0,21.621,9.221,21.621,20.554v11.202h-1.236c-14.841,0-26.914,11.754-26.914,26.202v9.352
			c0,14.448,12.073,26.202,26.914,26.202h1.236V341.077z M57.006,284.973c-6.569,0-11.914-5.025-11.914-11.202v-9.352
			c0-6.177,5.345-11.202,11.914-11.202H103.6c4.143,0,7.5-3.357,7.5-7.5s-3.357-7.5-7.5-7.5H73.242v-11.202
			c0-16.773-12.03-30.861-28.15-34.583v-30.875c0-11.334,9.699-20.555,21.621-20.555h87.363c11.922,0,21.621,9.221,21.621,20.554
			v56.106c0,4.143,3.357,7.5,7.5,7.5s7.5-3.357,7.5-7.5v-56.106c0-11.333,9.699-20.554,21.621-20.554h87.363
			c11.922,0,21.621,9.221,21.621,20.554c0,0.006,0.001,0.013,0.001,0.02v56.087c0,4.143,3.357,7.5,7.5,7.5s7.5-3.357,7.5-7.5
			v-56.106c0-0.004,0-0.008,0-0.013c0.007-11.327,9.703-20.541,21.621-20.541h87.363c11.922,0,21.621,9.221,21.621,20.554v30.875
			c-16.121,3.722-28.15,17.81-28.15,34.583v11.202h-89.955c-7.875,0-14.982,3.333-20,8.655c-5.018-5.323-12.125-8.655-20-8.655
			H203.197c-7.731,0-14.722,3.212-19.724,8.365c-4.917-5.141-11.922-8.365-19.69-8.365h-29.364c-4.143,0-7.5,3.357-7.5,7.5
			s3.357,7.5,7.5,7.5h29.364c6.569,0,11.914,5.025,11.914,11.202v1.298v6.756v1.298c0,6.177-5.345,11.202-11.914,11.202H57.006z
			 M321.303,272.471c0,6.893-5.607,12.5-12.5,12.5H203.197c-6.893,0-12.5-5.607-12.5-12.5v-6.756c0-6.893,5.607-12.5,12.5-12.5
			h105.605c6.893,0,12.5,5.607,12.5,12.5v6.756H321.303z M116.484,371.002H73.242v-14.924h43.242V371.002z M436.816,371.002h-43.242
			v-14.924h43.242V371.002z M124.004,341.078c-0.007,0-0.013-0.001-0.019-0.001c-0.006,0-0.013,0.001-0.019,0.001H73.242v-41.106
			h90.541c7.768,0,14.773-3.224,19.69-8.365c5.001,5.153,11.993,8.365,19.724,8.365h105.605c7.875,0,14.982-3.333,20-8.655
			c5.018,5.323,12.125,8.655,20,8.655h89.955v41.106H124.004z M348.803,284.971c-6.893,0-12.5-5.607-12.5-12.5v-6.756
			c0-6.893,5.607-12.5,12.5-12.5h105.605c6.893,0,12.5,5.607,12.5,12.5v6.756c0,6.893-5.607,12.5-12.5,12.5H348.803z M497,341.078
			h-43.242v-41.106h0.65c15.163,0,27.5-12.337,27.5-27.5v-6.756c0-15.163-12.337-27.5-27.5-27.5h-0.65v-11.202
			c0-11.333,9.699-20.554,21.621-20.554S497,215.681,497,227.013V341.078z"/>
    </symbol>

    <symbol id="big_sofa_2" xmlns="http://www.w3.org/2000/svg" viewBox="0 0 465.04 465.04"
            style="enable-background:new 0 0 465.04 465.04;" xml:space="preserve">
        <path d="M462.166,184.105L462.166,184.105c0,0-45.977-18.439-47.846-18.794l-8.756-1.662v-5.114c0-7.235-5.865-13.1-13.1-13.1
            h-150.34c-3.794,0-7.206,1.631-9.601,4.217c-2.395-2.586-5.806-4.217-9.6-4.217H72.584c-7.235,0-13.101,5.865-13.101,13.101v5.113
            l-8.755,1.662c-1.866,0.354-47.868,18.799-47.868,18.799h0C1.277,184.123,0,185.41,0,186.994v94.578
            c0,15.556,12.611,28.167,28.167,28.167h18.856v9.866h7v-9.866h357v9.866h7v-9.866h18.851c15.556,0,28.166-12.61,28.166-28.166
            v-93.939l-0.005-0.682C465.022,185.376,463.741,184.105,462.166,184.105z M348.252,222.435v-0.327
            c1.499,0.844,3.171,1.396,4.947,1.558l38.981,3.543c0.376,0.034,0.75,0.051,1.122,0.051c3.51,0,6.756-1.455,9.057-3.939
            l12.049,8.117H50.639l12.049-8.117c2.3,2.484,5.546,3.939,9.057,3.939c0.372,0,0.747-0.017,1.122-0.051l38.98-3.543
            c1.776-0.162,3.448-0.714,4.947-1.558v0.327H348.252z M420.233,188.686l2.12,1.069v38.596l-16.421-11.063L420.233,188.686z
             M42.687,228.355v-38.597l2.127-1.073l14.301,28.602L42.687,228.355z M41.716,182.408l-3.365,1.697h-16.11l18.442-7.148
            C40.605,178.805,40.95,180.66,41.716,182.408z M42.687,238.438h379.667v27.667H42.687V238.438z M426.696,184.105l-3.365-1.697
            c0.766-1.748,1.111-3.601,1.034-5.449l18.435,7.146H426.696z M416.825,175.082c0.754,1.522,0.75,3.267-0.01,4.786l-18.71,37.423
            c-0.989,1.977-3.057,3.155-5.292,2.947l-38.981-3.543c-1.85-0.168-3.405-1.208-4.269-2.852c-0.864-1.645-0.837-3.516,0.075-5.134
            l22.811-40.501c0.951-1.688,2.744-2.737,4.68-2.737c0.335,0,0.672,0.032,1.003,0.095l34.882,6.623
            C414.682,172.505,416.071,173.56,416.825,175.082z M242.124,152.435h150.34c3.363,0,6.1,2.736,6.1,6.1v3.785l-19.126-3.631
            c-0.76-0.145-1.537-0.218-2.309-0.218c-4.458,0-8.588,2.414-10.778,6.301l-22.812,40.502c-1.769,3.141-2.06,6.826-0.884,10.162
            H236.023v-56.9C236.023,155.171,238.76,152.435,242.124,152.435z M66.483,158.535c0-3.363,2.736-6.1,6.101-6.1h150.34
            c3.363,0,6.1,2.736,6.1,6.1v56.9H122.392c1.175-3.336,0.885-7.021-0.884-10.162l-22.812-40.502
            c-2.189-3.886-6.319-6.301-10.777-6.301c-0.772,0-1.55,0.073-2.311,0.218l-19.125,3.631V158.535z M52.034,172.188l34.88-6.623
            c0.332-0.063,0.669-0.095,1.005-0.095c1.935,0,3.728,1.048,4.678,2.736l22.812,40.502c0.912,1.618,0.939,3.489,0.075,5.134
            c-0.863,1.644-2.419,2.684-4.269,2.852l-38.98,3.543c-2.239,0.202-4.304-0.97-5.291-2.947l-18.712-37.422
            c-0.76-1.52-0.764-3.264-0.01-4.786C48.976,173.56,50.365,172.505,52.034,172.188z M35.687,302.739h-7.52
            C16.495,302.739,7,293.244,7,281.572v-90.467h28.687V302.739z M42.687,302.605v-29.5h379.667v29.5H42.687z M458.04,281.572
            c0,11.671-9.495,21.167-21.166,21.167h-7.521V191.105h28.687V281.572z"/>
    </symbol>


</svg>
